<?xml version="1.0" encoding="UTF-8" standalone="no"?>
<svg width="356px" height="99px" viewBox="0 0 356 99" version="1.1" xmlns="http://www.w3.org/2000/svg" xmlns:xlink="http://www.w3.org/1999/xlink" xmlns:sketch="http://www.bohemiancoding.com/sketch/ns">
    <!-- Generator: Sketch 3.5.2 (25235) - http://www.bohemiancoding.com/sketch -->
    <title>filters</title>
    <desc>Created with Sketch.</desc>
    <defs>
        <filter x="-50%" y="-50%" width="200%" height="200%" filterUnits="objectBoundingBox" id="filter-1">
            <feOffset dx="0" dy="0" in="SourceAlpha" result="shadowOffsetOuter1"></feOffset>
            <feGaussianBlur stdDeviation="2" in="shadowOffsetOuter1" result="shadowBlurOuter1"></feGaussianBlur>
            <feColorMatrix values="0 0 0 0 0   0 0 0 0 0   0 0 0 0 0  0 0 0 0.35 0" in="shadowBlurOuter1" type="matrix" result="shadowMatrixOuter1"></feColorMatrix>
            <feMerge>
                <feMergeNode in="shadowMatrixOuter1"></feMergeNode>
                <feMergeNode in="SourceGraphic"></feMergeNode>
            </feMerge>
        </filter>
        <circle id="path-2" cx="43.5" cy="43.5" r="43.5"></circle>
        <filter x="-50%" y="-50%" width="200%" height="200%" filterUnits="objectBoundingBox" id="filter-4">
            <feOffset dx="0" dy="2" in="SourceAlpha" result="shadowOffsetOuter1"></feOffset>
            <feGaussianBlur stdDeviation="2" in="shadowOffsetOuter1" result="shadowBlurOuter1"></feGaussianBlur>
            <feColorMatrix values="0 0 0 0 0   0 0 0 0 0   0 0 0 0 0  0 0 0 0.35 0" in="shadowBlurOuter1" type="matrix" result="shadowMatrixOuter1"></feColorMatrix>
            <feMerge>
                <feMergeNode in="shadowMatrixOuter1"></feMergeNode>
                <feMergeNode in="SourceGraphic"></feMergeNode>
            </feMerge>
        </filter>
    </defs>
    <g id="Page-1" stroke="none" stroke-width="1" fill="none" fill-rule="evenodd" sketch:type="MSPage">
        <g id="Desktop-HD" sketch:type="MSArtboardGroup" transform="translate(-772.000000, -592.000000)">
            <g id="Group-6" sketch:type="MSLayerGroup" transform="translate(210.000000, 142.000000)">
                <g id="filters" transform="translate(562.000000, 456.000000)">
                    <rect id="Rectangle-12" fill="#ECEDEE" sketch:type="MSShapeGroup" x="0" y="24" width="356" height="39"></rect>
                    <path d="M30.841,40.257 C31.105,40.257 31.314,40.059 31.314,39.795 C31.314,39.531 31.105,39.322 30.841,39.322 L26.562,39.322 C26.287,39.322 26.067,39.553 26.067,39.828 L26.067,46.56 C26.067,46.835 26.287,47.055 26.562,47.055 C26.837,47.055 27.068,46.835 27.068,46.56 L27.068,43.623 L30.456,43.623 C30.72,43.623 30.929,43.425 30.929,43.161 C30.929,42.897 30.72,42.688 30.456,42.688 L27.068,42.688 L27.068,40.257 L30.841,40.257 Z M33.162,38.915 C32.887,38.915 32.667,39.135 32.667,39.421 L32.667,46.56 C32.667,46.835 32.887,47.055 33.162,47.055 C33.448,47.055 33.668,46.835 33.668,46.56 L33.668,39.421 C33.668,39.135 33.448,38.915 33.162,38.915 L33.162,38.915 Z M37.606,41.28 C36.825,41.28 36.22,41.456 35.703,41.676 C35.516,41.753 35.417,41.907 35.417,42.094 C35.417,42.336 35.604,42.512 35.824,42.512 C35.868,42.512 35.923,42.501 35.967,42.49 C36.374,42.358 36.814,42.226 37.43,42.226 C38.42,42.226 38.904,42.611 38.904,43.59 L38.904,43.678 L37.573,43.678 C35.857,43.678 35.043,44.426 35.043,45.46 C35.043,46.494 35.879,47.11 36.836,47.11 C37.87,47.11 38.508,46.681 38.904,46.274 L38.904,46.56 C38.904,46.835 39.124,47.055 39.399,47.055 C39.674,47.055 39.905,46.835 39.905,46.56 L39.905,43.447 C39.905,42.369 39.212,41.28 37.606,41.28 L37.606,41.28 Z M37.21,46.23 C36.319,46.23 36.044,45.823 36.044,45.35 C36.044,44.723 36.671,44.481 37.705,44.481 L38.904,44.481 L38.904,45.405 C38.53,45.834 37.892,46.23 37.21,46.23 L37.21,46.23 Z M44.283,46.131 C44.096,46.131 43.975,46.23 43.623,46.23 C43.348,46.23 42.908,46.219 42.908,45.57 L42.908,42.248 L44.151,42.248 C44.393,42.248 44.58,42.061 44.58,41.819 C44.58,41.577 44.393,41.39 44.151,41.39 L42.908,41.39 L42.908,40.51 C42.908,40.389 42.82,40.29 42.699,40.29 C42.611,40.29 42.545,40.356 42.512,40.389 L41.016,41.852 C40.95,41.907 40.917,41.973 40.917,42.039 C40.917,42.16 41.005,42.248 41.126,42.248 L41.907,42.248 L41.907,45.658 C41.907,47.022 42.996,47.11 43.513,47.11 C43.865,47.11 44.162,47.033 44.426,46.912 C44.58,46.835 44.679,46.714 44.679,46.527 C44.679,46.296 44.481,46.131 44.283,46.131 L44.283,46.131 Z M46.307,41.335 C46.032,41.335 45.812,41.555 45.812,41.841 L45.812,46.56 C45.812,46.835 46.032,47.055 46.307,47.055 C46.593,47.055 46.813,46.835 46.813,46.56 L46.813,41.841 C46.813,41.555 46.593,41.335 46.307,41.335 L46.307,41.335 Z M46.912,39.641 C46.912,39.333 46.659,39.08 46.351,39.08 L46.285,39.08 C45.977,39.08 45.724,39.333 45.724,39.641 L45.724,39.685 C45.724,39.993 45.977,40.246 46.285,40.246 L46.351,40.246 C46.659,40.246 46.912,39.993 46.912,39.685 L46.912,39.641 L46.912,39.641 Z M52.764,45.757 C52.676,45.757 52.621,45.768 52.522,45.823 C52.137,46.021 51.829,46.175 51.257,46.175 C49.981,46.175 49.233,45.372 49.233,44.195 C49.233,43.018 49.981,42.215 51.257,42.215 C51.829,42.215 52.137,42.369 52.522,42.567 C52.621,42.622 52.676,42.633 52.764,42.633 C52.995,42.633 53.182,42.402 53.182,42.193 C53.182,42.028 53.094,41.896 52.962,41.808 C52.588,41.566 52.038,41.28 51.169,41.28 C49.607,41.28 48.232,42.358 48.232,44.195 C48.232,46.032 49.607,47.11 51.169,47.11 C52.038,47.11 52.588,46.824 52.962,46.582 C53.094,46.494 53.182,46.362 53.182,46.197 C53.182,45.988 52.995,45.757 52.764,45.757 L52.764,45.757 Z M56.922,41.28 C55.217,41.28 54.106,42.457 54.106,44.195 C54.106,45.933 55.217,47.11 56.922,47.11 C58.616,47.11 59.738,45.933 59.738,44.195 C59.738,42.457 58.616,41.28 56.922,41.28 L56.922,41.28 Z M56.922,46.197 C56.075,46.197 55.107,45.647 55.107,44.184 C55.107,42.732 56.075,42.193 56.922,42.193 C57.758,42.193 58.737,42.732 58.737,44.184 C58.737,45.647 57.758,46.197 56.922,46.197 L56.922,46.197 Z M64.182,41.28 C63.203,41.28 62.598,41.786 62.136,42.292 L62.136,41.841 C62.136,41.555 61.905,41.335 61.63,41.335 C61.355,41.335 61.135,41.555 61.135,41.841 L61.135,46.56 C61.135,46.835 61.355,47.055 61.63,47.055 C61.905,47.055 62.136,46.835 62.136,46.56 L62.136,43.26 C62.576,42.71 63.148,42.204 63.94,42.204 C64.798,42.204 65.15,42.71 65.15,43.546 L65.15,46.56 C65.15,46.835 65.37,47.055 65.645,47.055 C65.92,47.055 66.151,46.835 66.151,46.56 L66.151,43.436 C66.151,42.259 65.436,41.28 64.182,41.28 L64.182,41.28 Z M71.464,41.39 C71.464,40.565 72.311,40.136 73.422,40.136 C74.093,40.136 74.687,40.257 75.193,40.433 C75.248,40.455 75.314,40.477 75.369,40.477 C75.644,40.477 75.809,40.235 75.809,40.015 C75.809,39.751 75.655,39.63 75.501,39.575 C74.907,39.355 74.17,39.212 73.312,39.212 C71.453,39.212 70.463,40.246 70.463,41.467 C70.463,44.173 75.138,43.271 75.138,44.899 C75.138,45.856 74.302,46.164 73.213,46.164 C72.267,46.164 71.541,45.933 71.046,45.713 C70.969,45.68 70.903,45.669 70.837,45.669 C70.562,45.669 70.386,45.889 70.386,46.131 C70.386,46.329 70.529,46.516 70.694,46.582 C71.332,46.857 72.212,47.11 73.312,47.11 C75.017,47.11 76.128,46.208 76.128,44.965 C76.128,42.061 71.464,43.293 71.464,41.39 L71.464,41.39 Z M81.76,45.79 C81.683,45.79 81.628,45.801 81.562,45.834 C81.155,46.043 80.737,46.175 80.077,46.175 C78.889,46.175 78.262,45.537 78.152,44.547 L81.881,44.547 C82.189,44.547 82.387,44.327 82.387,44.052 C82.387,42.589 81.463,41.28 79.769,41.28 C77.943,41.28 77.14,42.71 77.14,44.195 C77.14,46.043 78.196,47.11 79.989,47.11 C80.946,47.11 81.43,46.901 81.914,46.626 C82.068,46.538 82.2,46.395 82.2,46.219 C82.2,45.966 81.991,45.79 81.76,45.79 L81.76,45.79 Z M79.769,42.127 C80.473,42.127 81.331,42.589 81.397,43.733 L78.152,43.733 C78.218,42.589 79.065,42.127 79.769,42.127 L79.769,42.127 Z M84.323,38.915 C84.048,38.915 83.828,39.135 83.828,39.421 L83.828,46.56 C83.828,46.835 84.048,47.055 84.323,47.055 C84.609,47.055 84.829,46.835 84.829,46.56 L84.829,39.421 C84.829,39.135 84.609,38.915 84.323,38.915 L84.323,38.915 Z M90.945,45.79 C90.868,45.79 90.813,45.801 90.747,45.834 C90.34,46.043 89.922,46.175 89.262,46.175 C88.074,46.175 87.447,45.537 87.337,44.547 L91.066,44.547 C91.374,44.547 91.572,44.327 91.572,44.052 C91.572,42.589 90.648,41.28 88.954,41.28 C87.128,41.28 86.325,42.71 86.325,44.195 C86.325,46.043 87.381,47.11 89.174,47.11 C90.131,47.11 90.615,46.901 91.099,46.626 C91.253,46.538 91.385,46.395 91.385,46.219 C91.385,45.966 91.176,45.79 90.945,45.79 L90.945,45.79 Z M88.954,42.127 C89.658,42.127 90.516,42.589 90.582,43.733 L87.337,43.733 C87.403,42.589 88.25,42.127 88.954,42.127 L88.954,42.127 Z M97.094,45.757 C97.006,45.757 96.951,45.768 96.852,45.823 C96.467,46.021 96.159,46.175 95.587,46.175 C94.311,46.175 93.563,45.372 93.563,44.195 C93.563,43.018 94.311,42.215 95.587,42.215 C96.159,42.215 96.467,42.369 96.852,42.567 C96.951,42.622 97.006,42.633 97.094,42.633 C97.325,42.633 97.512,42.402 97.512,42.193 C97.512,42.028 97.424,41.896 97.292,41.808 C96.918,41.566 96.368,41.28 95.499,41.28 C93.937,41.28 92.562,42.358 92.562,44.195 C92.562,46.032 93.937,47.11 95.499,47.11 C96.368,47.11 96.918,46.824 97.292,46.582 C97.424,46.494 97.512,46.362 97.512,46.197 C97.512,45.988 97.325,45.757 97.094,45.757 L97.094,45.757 Z M101.56,46.131 C101.373,46.131 101.252,46.23 100.9,46.23 C100.625,46.23 100.185,46.219 100.185,45.57 L100.185,42.248 L101.428,42.248 C101.67,42.248 101.857,42.061 101.857,41.819 C101.857,41.577 101.67,41.39 101.428,41.39 L100.185,41.39 L100.185,40.51 C100.185,40.389 100.097,40.29 99.976,40.29 C99.888,40.29 99.822,40.356 99.789,40.389 L98.293,41.852 C98.227,41.907 98.194,41.973 98.194,42.039 C98.194,42.16 98.282,42.248 98.403,42.248 L99.184,42.248 L99.184,45.658 C99.184,47.022 100.273,47.11 100.79,47.11 C101.142,47.11 101.439,47.033 101.703,46.912 C101.857,46.835 101.956,46.714 101.956,46.527 C101.956,46.296 101.758,46.131 101.56,46.131 L101.56,46.131 Z M103.584,41.335 C103.309,41.335 103.089,41.555 103.089,41.841 L103.089,46.56 C103.089,46.835 103.309,47.055 103.584,47.055 C103.87,47.055 104.09,46.835 104.09,46.56 L104.09,41.841 C104.09,41.555 103.87,41.335 103.584,41.335 L103.584,41.335 Z M104.189,39.641 C104.189,39.333 103.936,39.08 103.628,39.08 L103.562,39.08 C103.254,39.08 103.001,39.333 103.001,39.641 L103.001,39.685 C103.001,39.993 103.254,40.246 103.562,40.246 L103.628,40.246 C103.936,40.246 104.189,39.993 104.189,39.685 L104.189,39.641 L104.189,39.641 Z M108.347,41.28 C106.642,41.28 105.531,42.457 105.531,44.195 C105.531,45.933 106.642,47.11 108.347,47.11 C110.041,47.11 111.163,45.933 111.163,44.195 C111.163,42.457 110.041,41.28 108.347,41.28 L108.347,41.28 Z M108.347,46.197 C107.5,46.197 106.532,45.647 106.532,44.184 C106.532,42.732 107.5,42.193 108.347,42.193 C109.183,42.193 110.162,42.732 110.162,44.184 C110.162,45.647 109.183,46.197 108.347,46.197 L108.347,46.197 Z M115.607,41.28 C114.628,41.28 114.023,41.786 113.561,42.292 L113.561,41.841 C113.561,41.555 113.33,41.335 113.055,41.335 C112.78,41.335 112.56,41.555 112.56,41.841 L112.56,46.56 C112.56,46.835 112.78,47.055 113.055,47.055 C113.33,47.055 113.561,46.835 113.561,46.56 L113.561,43.26 C114.001,42.71 114.573,42.204 115.365,42.204 C116.223,42.204 116.575,42.71 116.575,43.546 L116.575,46.56 C116.575,46.835 116.795,47.055 117.07,47.055 C117.345,47.055 117.576,46.835 117.576,46.56 L117.576,43.436 C117.576,42.259 116.861,41.28 115.607,41.28 L115.607,41.28 Z" id="Flaticon-Selection" fill="#222222" sketch:type="MSShapeGroup"></path>
                    <path d="M163.466,39.212 C161.112,39.212 159.649,40.862 159.605,43.161 C159.649,45.46 161.112,47.11 163.466,47.11 C165.809,47.11 167.283,45.46 167.327,43.161 C167.283,40.862 165.809,39.212 163.466,39.212 L163.466,39.212 Z M163.466,46.175 C161.64,46.175 160.606,44.855 160.606,43.161 C160.606,41.467 161.64,40.147 163.466,40.147 C165.281,40.147 166.326,41.467 166.326,43.161 C166.326,44.855 165.281,46.175 163.466,46.175 L163.466,46.175 Z M171.474,41.28 L171.419,41.28 C170.66,41.28 170.088,41.786 169.692,42.314 L169.692,41.841 C169.692,41.566 169.461,41.335 169.186,41.335 C168.911,41.335 168.691,41.566 168.691,41.841 L168.691,46.56 C168.691,46.835 168.911,47.055 169.186,47.055 C169.461,47.055 169.692,46.835 169.692,46.56 L169.692,43.216 C170.077,42.644 170.671,42.248 171.397,42.248 L171.452,42.248 C171.738,42.248 171.958,42.061 171.958,41.775 C171.958,41.5 171.749,41.28 171.474,41.28 L171.474,41.28 Z M175.269,41.28 C173.938,41.28 172.607,42.325 172.607,44.195 C172.607,46.065 173.938,47.11 175.269,47.11 C176.039,47.11 176.644,46.802 177.15,46.274 L177.15,46.56 C177.15,46.835 177.37,47.055 177.656,47.055 C177.931,47.055 178.151,46.835 178.151,46.56 L178.151,39.421 C178.151,39.135 177.931,38.915 177.656,38.915 C177.37,38.915 177.15,39.135 177.15,39.421 L177.15,42.116 C176.644,41.588 176.039,41.28 175.269,41.28 L175.269,41.28 Z M175.412,46.175 C174.367,46.175 173.608,45.493 173.608,44.195 C173.608,42.897 174.367,42.215 175.412,42.215 C176.127,42.215 176.721,42.567 177.15,43.04 L177.15,45.35 C176.721,45.823 176.127,46.175 175.412,46.175 L175.412,46.175 Z M184.179,45.79 C184.102,45.79 184.047,45.801 183.981,45.834 C183.574,46.043 183.156,46.175 182.496,46.175 C181.308,46.175 180.681,45.537 180.571,44.547 L184.3,44.547 C184.608,44.547 184.806,44.327 184.806,44.052 C184.806,42.589 183.882,41.28 182.188,41.28 C180.362,41.28 179.559,42.71 179.559,44.195 C179.559,46.043 180.615,47.11 182.408,47.11 C183.365,47.11 183.849,46.901 184.333,46.626 C184.487,46.538 184.619,46.395 184.619,46.219 C184.619,45.966 184.41,45.79 184.179,45.79 L184.179,45.79 Z M182.188,42.127 C182.892,42.127 183.75,42.589 183.816,43.733 L180.571,43.733 C180.637,42.589 181.484,42.127 182.188,42.127 L182.188,42.127 Z M188.942,41.28 L188.887,41.28 C188.128,41.28 187.556,41.786 187.16,42.314 L187.16,41.841 C187.16,41.566 186.929,41.335 186.654,41.335 C186.379,41.335 186.159,41.566 186.159,41.841 L186.159,46.56 C186.159,46.835 186.379,47.055 186.654,47.055 C186.929,47.055 187.16,46.835 187.16,46.56 L187.16,43.216 C187.545,42.644 188.139,42.248 188.865,42.248 L188.92,42.248 C189.206,42.248 189.426,42.061 189.426,41.775 C189.426,41.5 189.217,41.28 188.942,41.28 L188.942,41.28 Z M196.158,41.28 C195.388,41.28 194.783,41.588 194.277,42.116 L194.277,39.421 C194.277,39.135 194.057,38.915 193.771,38.915 C193.496,38.915 193.276,39.135 193.276,39.421 L193.276,46.56 C193.276,46.835 193.496,47.055 193.771,47.055 C194.057,47.055 194.277,46.835 194.277,46.56 L194.277,46.274 C194.783,46.802 195.388,47.11 196.158,47.11 C197.489,47.11 198.82,46.065 198.82,44.195 C198.82,42.325 197.489,41.28 196.158,41.28 L196.158,41.28 Z M196.015,46.175 C195.3,46.175 194.706,45.823 194.277,45.35 L194.277,43.04 C194.706,42.567 195.3,42.215 196.015,42.215 C197.06,42.215 197.819,42.897 197.819,44.195 C197.819,45.493 197.06,46.175 196.015,46.175 L196.015,46.175 Z M204.892,41.841 C204.892,41.566 204.672,41.335 204.397,41.335 C204.177,41.335 204.023,41.467 203.935,41.665 L202.208,45.845 L200.514,41.643 C200.437,41.467 200.261,41.335 200.052,41.335 C199.777,41.335 199.557,41.566 199.557,41.841 C199.557,41.918 199.579,41.995 199.601,42.05 L201.669,47.088 L200.954,48.925 C200.932,48.98 200.921,49.046 200.921,49.101 C200.921,49.365 201.13,49.585 201.394,49.585 C201.625,49.585 201.768,49.442 201.856,49.244 L204.859,42.028 C204.881,41.973 204.892,41.907 204.892,41.841 L204.892,41.841 Z" id="Order-by" fill="#222222" sketch:type="MSShapeGroup"></path>
                    <path d="M245.841,40.257 C246.105,40.257 246.314,40.059 246.314,39.795 C246.314,39.531 246.105,39.322 245.841,39.322 L241.562,39.322 C241.287,39.322 241.067,39.553 241.067,39.828 L241.067,46.56 C241.067,46.835 241.287,47.055 241.562,47.055 C241.837,47.055 242.068,46.835 242.068,46.56 L242.068,43.623 L245.456,43.623 C245.72,43.623 245.929,43.425 245.929,43.161 C245.929,42.897 245.72,42.688 245.456,42.688 L242.068,42.688 L242.068,40.257 L245.841,40.257 Z M247.997,41.335 C247.722,41.335 247.502,41.555 247.502,41.841 L247.502,46.56 C247.502,46.835 247.722,47.055 247.997,47.055 C248.283,47.055 248.503,46.835 248.503,46.56 L248.503,41.841 C248.503,41.555 248.283,41.335 247.997,41.335 L247.997,41.335 Z M248.602,39.641 C248.602,39.333 248.349,39.08 248.041,39.08 L247.975,39.08 C247.667,39.08 247.414,39.333 247.414,39.641 L247.414,39.685 C247.414,39.993 247.667,40.246 247.975,40.246 L248.041,40.246 C248.349,40.246 248.602,39.993 248.602,39.685 L248.602,39.641 L248.602,39.641 Z M250.868,38.915 C250.593,38.915 250.373,39.135 250.373,39.421 L250.373,46.56 C250.373,46.835 250.593,47.055 250.868,47.055 C251.154,47.055 251.374,46.835 251.374,46.56 L251.374,39.421 C251.374,39.135 251.154,38.915 250.868,38.915 L250.868,38.915 Z M255.939,46.131 C255.752,46.131 255.631,46.23 255.279,46.23 C255.004,46.23 254.564,46.219 254.564,45.57 L254.564,42.248 L255.807,42.248 C256.049,42.248 256.236,42.061 256.236,41.819 C256.236,41.577 256.049,41.39 255.807,41.39 L254.564,41.39 L254.564,40.51 C254.564,40.389 254.476,40.29 254.355,40.29 C254.267,40.29 254.201,40.356 254.168,40.389 L252.672,41.852 C252.606,41.907 252.573,41.973 252.573,42.039 C252.573,42.16 252.661,42.248 252.782,42.248 L253.563,42.248 L253.563,45.658 C253.563,47.022 254.652,47.11 255.169,47.11 C255.521,47.11 255.818,47.033 256.082,46.912 C256.236,46.835 256.335,46.714 256.335,46.527 C256.335,46.296 256.137,46.131 255.939,46.131 L255.939,46.131 Z M261.714,45.79 C261.637,45.79 261.582,45.801 261.516,45.834 C261.109,46.043 260.691,46.175 260.031,46.175 C258.843,46.175 258.216,45.537 258.106,44.547 L261.835,44.547 C262.143,44.547 262.341,44.327 262.341,44.052 C262.341,42.589 261.417,41.28 259.723,41.28 C257.897,41.28 257.094,42.71 257.094,44.195 C257.094,46.043 258.15,47.11 259.943,47.11 C260.9,47.11 261.384,46.901 261.868,46.626 C262.022,46.538 262.154,46.395 262.154,46.219 C262.154,45.966 261.945,45.79 261.714,45.79 L261.714,45.79 Z M259.723,42.127 C260.427,42.127 261.285,42.589 261.351,43.733 L258.106,43.733 C258.172,42.589 259.019,42.127 259.723,42.127 L259.723,42.127 Z M266.477,41.28 L266.422,41.28 C265.663,41.28 265.091,41.786 264.695,42.314 L264.695,41.841 C264.695,41.566 264.464,41.335 264.189,41.335 C263.914,41.335 263.694,41.566 263.694,41.841 L263.694,46.56 C263.694,46.835 263.914,47.055 264.189,47.055 C264.464,47.055 264.695,46.835 264.695,46.56 L264.695,43.216 C265.08,42.644 265.674,42.248 266.4,42.248 L266.455,42.248 C266.741,42.248 266.961,42.061 266.961,41.775 C266.961,41.5 266.752,41.28 266.477,41.28 L266.477,41.28 Z M268.611,42.963 C268.611,42.523 269.062,42.193 269.876,42.193 C270.36,42.193 270.778,42.281 271.13,42.391 C271.174,42.402 271.218,42.413 271.273,42.413 C271.526,42.413 271.713,42.204 271.713,41.973 C271.713,41.808 271.603,41.621 271.394,41.555 C270.943,41.39 270.404,41.28 269.799,41.28 C268.369,41.28 267.654,42.028 267.654,43.018 C267.654,45.02 270.954,44.459 270.954,45.405 C270.954,45.9 270.58,46.186 269.733,46.186 C269.084,46.186 268.633,46.032 268.237,45.856 C268.16,45.823 268.105,45.812 268.039,45.812 C267.786,45.812 267.61,46.032 267.61,46.252 C267.61,46.406 267.687,46.538 267.797,46.615 C268.358,46.923 268.996,47.11 269.799,47.11 C271.207,47.11 271.922,46.373 271.922,45.482 C271.922,43.326 268.611,44.107 268.611,42.963 L268.611,42.963 Z" id="Filters" fill="#222222" sketch:type="MSShapeGroup"></path>
                    <path d="M208,42 L216,42 L212,46 L208,42 Z" id="Triangle-1" fill="#222222" sketch:type="MSShapeGroup"></path>
                    <path d="M274,42 L282,42 L278,46 L274,42 Z" id="Triangle-1" fill="#222222" sketch:type="MSShapeGroup"></path>
                    <path d="M21.5193885,39.369747 C21.3868819,39.1412289 21.1383987,39 20.8687998,39 L20.4420593,39 L12.7472389,39 C12.4775867,39 12.2290502,39.1412289 12.0965436,39.369747 C11.9640903,39.5976427 11.9681428,39.8779223 12.1073681,40.1022911 L14.1547948,43.4008662 L16.158817,43.4008662 L16.158817,43.4013329 L17.7236746,43.4013329 L15.9455801,46.272435 L16.1791863,46.64908 C16.3144123,46.8670695 16.55719,47 16.8187905,47 C17.0806577,47 17.323382,46.8670695 17.4586081,46.64908 L19.6746408,43.0631718 C19.8091737,42.8447156 19.8160523,42.5738755 19.6932504,42.3489361 C19.5706085,42.1241523 19.3391352,41.9618661 19.0777479,41.9479144 L14.9974514,41.9479144 L14.0705985,40.4535223 L21.2905813,40.4540928 L21.5086173,40.1022911 C21.6478426,39.8779223 21.6520017,39.5976427 21.5193885,39.369747" id="Fill-1" fill="#000000" sketch:type="MSShapeGroup"></path>
                    <g id="Group-4" transform="translate(73.000000, 0.000000)">
                        <mask id="mask-3" sketch:name="Mask" fill="white">
                            <use xlink:href="#path-2"></use>
                        </mask>
                        <use id="Mask" stroke="#FFFFFF" stroke-width="4" fill="#FFFFFF" filter="url(#filter-1)" sketch:type="MSShapeGroup" xlink:href="#path-2"></use>
                        <rect id="Rectangle-14" fill="#ECEDEE" sketch:type="MSShapeGroup" mask="url(#mask-3)" x="-2" y="15" width="90" height="58"></rect>
                        <g id="Group-7" mask="url(#mask-3)" sketch:type="MSShapeGroup">
                            <g transform="translate(-33.000000, 33.000000)">
                                <path d="M2.384,7.84 C2.384,6.64 3.616,6.016 5.232,6.016 C6.208,6.016 7.072,6.192 7.808,6.448 C7.888,6.48 7.984,6.512 8.064,6.512 C8.464,6.512 8.704,6.16 8.704,5.84 C8.704,5.456 8.48,5.28 8.256,5.2 C7.392,4.88 6.32,4.672 5.072,4.672 C2.368,4.672 0.928,6.176 0.928,7.952 C0.928,11.888 7.728,10.576 7.728,12.944 C7.728,14.336 6.512,14.784 4.928,14.784 C3.552,14.784 2.496,14.448 1.776,14.128 C1.664,14.08 1.568,14.064 1.472,14.064 C1.072,14.064 0.816,14.384 0.816,14.736 C0.816,15.024 1.024,15.296 1.264,15.392 C2.192,15.792 3.472,16.16 5.072,16.16 C7.552,16.16 9.168,14.848 9.168,13.04 C9.168,8.816 2.384,10.608 2.384,7.84 L2.384,7.84 Z M17.36,14.24 C17.248,14.24 17.168,14.256 17.072,14.304 C16.48,14.608 15.872,14.8 14.912,14.8 C13.184,14.8 12.272,13.872 12.112,12.432 L17.536,12.432 C17.984,12.432 18.272,12.112 18.272,11.712 C18.272,9.584 16.928,7.68 14.464,7.68 C11.808,7.68 10.64,9.76 10.64,11.92 C10.64,14.608 12.176,16.16 14.784,16.16 C16.176,16.16 16.88,15.856 17.584,15.456 C17.808,15.328 18,15.12 18,14.864 C18,14.496 17.696,14.24 17.36,14.24 L17.36,14.24 Z M14.464,8.912 C15.488,8.912 16.736,9.584 16.832,11.248 L12.112,11.248 C12.208,9.584 13.44,8.912 14.464,8.912 L14.464,8.912 Z M21.088,4.24 C20.688,4.24 20.368,4.56 20.368,4.976 L20.368,15.36 C20.368,15.76 20.688,16.08 21.088,16.08 C21.504,16.08 21.824,15.76 21.824,15.36 L21.824,4.976 C21.824,4.56 21.504,4.24 21.088,4.24 L21.088,4.24 Z M30.72,14.24 C30.608,14.24 30.528,14.256 30.432,14.304 C29.84,14.608 29.232,14.8 28.272,14.8 C26.544,14.8 25.632,13.872 25.472,12.432 L30.896,12.432 C31.344,12.432 31.632,12.112 31.632,11.712 C31.632,9.584 30.288,7.68 27.824,7.68 C25.168,7.68 24,9.76 24,11.92 C24,14.608 25.536,16.16 28.144,16.16 C29.536,16.16 30.24,15.856 30.944,15.456 C31.168,15.328 31.36,15.12 31.36,14.864 C31.36,14.496 31.056,14.24 30.72,14.24 L30.72,14.24 Z M27.824,8.912 C28.848,8.912 30.096,9.584 30.192,11.248 L25.472,11.248 C25.568,9.584 26.8,8.912 27.824,8.912 L27.824,8.912 Z M39.664,14.192 C39.536,14.192 39.456,14.208 39.312,14.288 C38.752,14.576 38.304,14.8 37.472,14.8 C35.616,14.8 34.528,13.632 34.528,11.92 C34.528,10.208 35.616,9.04 37.472,9.04 C38.304,9.04 38.752,9.264 39.312,9.552 C39.456,9.632 39.536,9.648 39.664,9.648 C40,9.648 40.272,9.312 40.272,9.008 C40.272,8.768 40.144,8.576 39.952,8.448 C39.408,8.096 38.608,7.68 37.344,7.68 C35.072,7.68 33.072,9.248 33.072,11.92 C33.072,14.592 35.072,16.16 37.344,16.16 C38.608,16.16 39.408,15.744 39.952,15.392 C40.144,15.264 40.272,15.072 40.272,14.832 C40.272,14.528 40,14.192 39.664,14.192 L39.664,14.192 Z M46.16,14.736 C45.888,14.736 45.712,14.88 45.2,14.88 C44.8,14.88 44.16,14.864 44.16,13.92 L44.16,9.088 L45.968,9.088 C46.32,9.088 46.592,8.816 46.592,8.464 C46.592,8.112 46.32,7.84 45.968,7.84 L44.16,7.84 L44.16,6.56 C44.16,6.384 44.032,6.24 43.856,6.24 C43.728,6.24 43.632,6.336 43.584,6.384 L41.408,8.512 C41.312,8.592 41.264,8.688 41.264,8.784 C41.264,8.96 41.392,9.088 41.568,9.088 L42.704,9.088 L42.704,14.048 C42.704,16.032 44.288,16.16 45.04,16.16 C45.552,16.16 45.984,16.048 46.368,15.872 C46.592,15.76 46.736,15.584 46.736,15.312 C46.736,14.976 46.448,14.736 46.16,14.736 L46.16,14.736 Z M49.104,7.76 C48.704,7.76 48.384,8.08 48.384,8.496 L48.384,15.36 C48.384,15.76 48.704,16.08 49.104,16.08 C49.52,16.08 49.84,15.76 49.84,15.36 L49.84,8.496 C49.84,8.08 49.52,7.76 49.104,7.76 L49.104,7.76 Z M49.984,5.296 C49.984,4.848 49.616,4.48 49.168,4.48 L49.072,4.48 C48.624,4.48 48.256,4.848 48.256,5.296 L48.256,5.36 C48.256,5.808 48.624,6.176 49.072,6.176 L49.168,6.176 C49.616,6.176 49.984,5.808 49.984,5.36 L49.984,5.296 L49.984,5.296 Z M56.032,7.68 C53.552,7.68 51.936,9.392 51.936,11.92 C51.936,14.448 53.552,16.16 56.032,16.16 C58.496,16.16 60.128,14.448 60.128,11.92 C60.128,9.392 58.496,7.68 56.032,7.68 L56.032,7.68 Z M56.032,14.832 C54.8,14.832 53.392,14.032 53.392,11.904 C53.392,9.792 54.8,9.008 56.032,9.008 C57.248,9.008 58.672,9.792 58.672,11.904 C58.672,14.032 57.248,14.832 56.032,14.832 L56.032,14.832 Z M66.592,7.68 C65.168,7.68 64.288,8.416 63.616,9.152 L63.616,8.496 C63.616,8.08 63.28,7.76 62.88,7.76 C62.48,7.76 62.16,8.08 62.16,8.496 L62.16,15.36 C62.16,15.76 62.48,16.08 62.88,16.08 C63.28,16.08 63.616,15.76 63.616,15.36 L63.616,10.56 C64.256,9.76 65.088,9.024 66.24,9.024 C67.488,9.024 68,9.76 68,10.976 L68,15.36 C68,15.76 68.32,16.08 68.72,16.08 C69.12,16.08 69.456,15.76 69.456,15.36 L69.456,10.816 C69.456,9.104 68.416,7.68 66.592,7.68 L66.592,7.68 Z" id="Selection" fill="#222222"></path>
                                <rect id="Rectangle-13" fill="#B2FA00" x="74" y="0" width="40" height="22" rx="10"></rect>
                                <circle id="Oval-4" fill="#FFFFFF" filter="url(#filter-4)" cx="103" cy="11" r="9"></circle>
                            </g>
                        </g>
                    </g>
                </g>
            </g>
        </g>
    </g>
</svg>