<?xml version="1.0" encoding="UTF-8" standalone="no"?>
<svg width="320px" height="131px" viewBox="0 0 320 131" version="1.1" xmlns="http://www.w3.org/2000/svg" xmlns:xlink="http://www.w3.org/1999/xlink" xmlns:sketch="http://www.bohemiancoding.com/sketch/ns">
    <!-- Generator: Sketch 3.5.2 (25235) - http://www.bohemiancoding.com/sketch -->
    <title>Group 2</title>
    <desc>Created with Sketch.</desc>
    <defs>
        <ellipse id="path-1" cx="48.3333333" cy="48.3333333" rx="48.3333333" ry="48.3333333"></ellipse>
        <filter x="-50%" y="-50%" width="200%" height="200%" filterUnits="objectBoundingBox" id="filter-3">
            <feOffset dx="0" dy="0" in="SourceAlpha" result="shadowOffsetOuter1"></feOffset>
            <feGaussianBlur stdDeviation="1.5" in="shadowOffsetOuter1" result="shadowBlurOuter1"></feGaussianBlur>
            <feColorMatrix values="0 0 0 0 0   0 0 0 0 0   0 0 0 0 0  0 0 0 0.35 0" in="shadowBlurOuter1" type="matrix" result="shadowMatrixOuter1"></feColorMatrix>
            <feMerge>
                <feMergeNode in="shadowMatrixOuter1"></feMergeNode>
                <feMergeNode in="SourceGraphic"></feMergeNode>
            </feMerge>
        </filter>
    </defs>
    <g id="Page-1" stroke="none" stroke-width="1" fill="none" fill-rule="evenodd" sketch:type="MSPage">
        <g id="Desktop-HD" sketch:type="MSArtboardGroup" transform="translate(-340.000000, -585.000000)">
            <g id="Group-6" sketch:type="MSLayerGroup" transform="translate(210.000000, 142.000000)">
                <g id="Group-2" transform="translate(130.000000, 443.000000)">
                    <g id="selection" transform="translate(280.000000, 75.555556)" fill="#000000" sketch:type="MSShapeGroup">
                        <g id="Slice-1">
                            <g id="Page-1" transform="translate(0.000000, 0.000000)">
                                <path d="M13.1910069,0.512358078 C13.0073926,0.195700806 12.6630698,2.84217094e-14 12.2894868,2.84217094e-14 L11.6981528,2.84217094e-14 L1.03544819,2.84217094e-14 C0.661791354,2.84217094e-14 0.31739457,0.195700806 0.133780324,0.512358078 C-0.0497600342,0.828152912 -0.0441444676,1.216536 0.148779797,1.52744371 L2.98589699,6.09827571 L5.7628685,6.09827571 L5.7628685,6.09892254 L7.93128995,6.09892254 L5.46738626,10.0774056 L5.79109414,10.5993224 C5.97847669,10.9013901 6.31489348,11.0855918 6.67739306,11.0855918 C7.04026211,11.0855918 7.376605,10.9013901 7.56398758,10.5993224 L10.6347419,5.63033301 C10.8211639,5.32761844 10.8306956,4.95231561 10.6605292,4.64061733 C10.4905844,4.32913469 10.1698321,4.10425484 9.80762806,4.08492194 L4.15356536,4.08492194 L2.86922621,2.01414436 L12.873949,2.01493492 L13.1760813,1.52744371 C13.3690055,1.216536 13.3747689,0.828152912 13.1910069,0.512358078" id="Fill-1"></path>
                            </g>
                        </g>
                    </g>
                    <g id="flaticon1455889560-svg" transform="translate(253.333333, 0.000000)" fill="#000000" sketch:type="MSShapeGroup">
                        <g id="Capa_1">
                            <g id="Group">
                                <path d="M58.4074237,7.84507937 C53.3862759,2.82373626 46.7098413,0.0584126984 39.6084982,0.0584126984 C32.5071551,0.0584126984 25.8311111,2.82373626 20.8095726,7.84507937 C10.4437607,18.2108913 10.4437607,35.0771184 20.8095726,45.4429304 C25.8309158,50.4642735 32.5071551,53.2295971 39.6084982,53.2295971 C46.7098413,53.2295971 53.3860806,50.4642735 58.4074237,45.4429304 C68.7730403,35.0769231 68.7730403,18.210696 58.4074237,7.84507937 L58.4074237,7.84507937 Z M57.3022711,44.3375824 C55.0202686,46.6195849 52.3743101,48.4047863 49.4964591,49.6427839 C52.9629304,47.3574603 56.1807082,44.5227839 58.9827595,41.2579243 C59.2636874,40.9305006 59.2261783,40.4370208 58.8987546,40.1560928 C58.5709402,39.8747741 58.077851,39.9124786 57.7967277,40.2400977 C53.844591,44.8447375 48.4030281,48.9656654 43.0273016,51.4346276 C41.9033944,51.5872039 40.7621001,51.6667155 39.6083028,51.6667155 C38.7967766,51.6667155 37.9915018,51.6276435 37.1938462,51.5516484 C40.6984127,50.3124786 44.0304762,48.6433211 47.13221,46.5660562 C47.4908913,46.3259585 47.5868132,45.8404884 47.3467155,45.4820024 C47.1066178,45.1235165 46.6215385,45.0272039 46.2626618,45.2674969 C42.4287179,47.835116 38.2308181,49.7582418 33.78442,50.9874481 C32.8019536,50.7543834 31.8374603,50.4623199 30.8948474,50.1128205 C31.6901587,49.9225397 32.4817582,49.7066667 33.2641758,49.4655922 C33.6765812,49.3384127 33.908083,48.9010012 33.7809035,48.4885958 C33.6541148,48.0763858 33.2163126,47.8450794 32.8041026,47.9718681 C31.3574603,48.4176801 29.8789744,48.7718681 28.4049817,49.0320879 C26.1313797,47.8915751 24.0252015,46.3943346 22.1540415,44.5712332 C23.0435165,44.3961905 23.9300611,44.1973138 24.802149,43.9703053 C25.2198291,43.861685 25.4704762,43.4350183 25.3616606,43.0173382 C25.2532357,42.5996581 24.8271551,42.3492063 24.4086935,42.4578266 C23.2445421,42.7606349 22.0546032,43.0146032 20.8654457,43.2201221 C18.836044,40.9283516 17.2991453,38.35116 16.2555311,35.6260806 C17.7879365,35.233602 19.311746,34.7565324 20.7968742,34.2021001 C21.2010745,34.0512821 21.4065934,33.6009768 21.25558,33.1967766 C21.1047619,32.7925763 20.6540659,32.586862 20.2502564,32.7380708 C18.7762637,33.2884005 17.2628083,33.7603907 15.7417338,34.1450549 C15.4096215,33.0822955 15.1492063,32.0017582 14.9618559,30.9108669 C18.3495971,29.8160684 21.602149,28.3239072 24.6357021,26.4593895 C25.00337,26.2333578 25.1182418,25.7521856 24.89221,25.3845177 C24.6659829,25.0170452 24.1850061,24.901978 23.8171429,25.1280098 C20.9680098,26.8792186 17.9186325,28.290696 14.7436386,29.3389988 C14.5887179,27.8960684 14.5580464,26.4425885 14.6527961,24.9953602 C16.2770208,24.2938217 17.8498657,23.493431 19.3326496,22.6102076 C19.7032479,22.3894505 19.8251526,21.9098413 19.6042002,21.5390476 C19.3834432,21.168254 18.9038339,21.0465446 18.5330403,21.2674969 C17.3528694,21.9702076 16.1131136,22.6189988 14.8344811,23.204884 C15.0528938,21.6171917 15.4234921,20.0468864 15.9460806,18.5172161 C18.4709158,17.0322833 21.0916728,15.0612943 23.2107448,13.1246886 C23.5293773,12.833602 23.5516484,12.3393407 23.2605617,12.0207082 C22.9692796,11.7018803 22.4750183,11.6798046 22.1565812,11.9710867 C20.5155556,13.4706716 18.7641514,14.838779 16.9347985,16.0572405 C18.1337241,13.4827839 19.7933089,11.0718437 21.9149206,8.95023199 C26.6410745,4.22407814 32.9248352,1.6210989 39.6086935,1.6210989 C40.5182906,1.6210989 41.4198779,1.67091575 42.3116972,1.76625153 C42.048547,2.56175824 41.7613675,3.35452991 41.4534799,4.13264957 C41.294652,4.53391941 41.4911844,4.98793651 41.8926496,5.14676435 C41.9868132,5.18407814 42.0841026,5.20185592 42.1800244,5.20185592 C42.4912332,5.20185592 42.7854457,5.01470085 42.9069597,4.70778999 C43.2611477,3.81264957 43.58779,2.89875458 43.8841514,1.98310134 C44.9807082,2.17084249 46.0581197,2.43184371 47.1115018,2.76141636 C45.9385592,7.41294261 44.0187546,11.7999512 41.3962393,15.8099145 C41.1600488,16.1711355 41.2614408,16.6554335 41.6224664,16.8916239 C41.7545299,16.9779731 41.9028083,17.0191941 42.0495238,17.0191941 C42.3044689,17.0191941 42.5543346,16.8945543 42.7043712,16.6653968 C45.3974115,12.54779 47.3760195,8.04708181 48.5940904,3.27619048 C51.357851,4.33777778 53.924884,5.89577534 56.1869597,7.90212454 C55.7933089,10.2218315 55.1964835,12.538022 54.4056654,14.7928694 C54.2628571,15.2 54.4769719,15.6460073 54.8842979,15.789011 C54.9698657,15.8190965 55.0571917,15.8333578 55.1429548,15.8333578 C55.4654945,15.8333578 55.7675214,15.6321368 55.8802442,15.3103785 C56.5833455,13.3061783 57.1379731,11.2547009 57.5398291,9.19384615 C60.802149,12.5448596 62.9370452,16.5905739 63.9439316,20.8519658 C62.615873,25.5113065 60.6169475,29.8148962 57.997558,33.6453236 C57.7539438,34.0014652 57.8453724,34.4879121 58.201514,34.7315263 C58.3363126,34.8237363 58.4900611,34.868083 58.6418559,34.868083 C58.8911355,34.868083 59.1363126,34.7489133 59.2877167,34.5275702 C61.4401954,31.3799267 63.1867155,27.9255678 64.5036386,24.2268132 C65.194823,31.4139194 62.7946276,38.8452259 57.3022711,44.3375824 L57.3022711,44.3375824 Z" id="Shape"></path>
                                <path d="M4.6169475,12.4495238 C2.07120879,12.4495238 0,14.5207326 0,17.0664713 C0,19.61221 2.07120879,21.6834188 4.6169475,21.6834188 C7.1626862,21.6834188 9.23409035,19.61221 9.23409035,17.0664713 C9.23409035,14.5207326 7.1626862,12.4495238 4.6169475,12.4495238 L4.6169475,12.4495238 Z M4.6169475,20.1205372 C2.93294261,20.1205372 1.56288156,18.7504762 1.56288156,17.0664713 C1.56288156,15.3824664 2.93294261,14.0124054 4.6169475,14.0124054 C6.30095238,14.0124054 7.67120879,15.3824664 7.67120879,17.0664713 C7.67120879,18.7504762 6.30095238,20.1205372 4.6169475,20.1205372 L4.6169475,20.1205372 Z" id="Shape"></path>
                                <path d="M38.5387057,35.8810256 C38.1849084,36.128547 38.0989499,36.6157753 38.3464713,36.9693773 C38.4984615,37.1866178 38.7410989,37.3028571 38.9874481,37.3028571 C39.141978,37.3028571 39.2984615,37.2569475 39.4346276,37.1616117 C43.9042735,34.0342857 47.7481807,30.0725763 50.8590965,25.3866667 C51.726105,24.0804884 52.5339194,22.7162882 53.2596825,21.3321612 C53.4599267,20.9498413 53.3126252,20.4774603 52.9303053,20.2772161 C52.5489621,20.0769719 52.0757998,20.2240781 51.8753602,20.606398 C51.1746032,21.9432479 50.3945299,23.260757 49.5572161,24.5221978 C46.5545299,29.044591 42.8471795,32.8662271 38.5387057,35.8810256 L38.5387057,35.8810256 Z" id="Shape"></path>
                                <path d="M32.1680098,39.6422955 C31.2252015,40.0900611 30.2552381,40.5052015 29.2850794,40.8757998 C28.8820513,41.0299389 28.6798535,41.4816117 28.8339927,41.8846398 C28.952967,42.196044 29.2495238,42.3873016 29.5640537,42.3873016 C29.6568498,42.3873016 29.7510134,42.370696 29.8428327,42.3355311 C30.8508913,41.9502808 31.8587546,41.5191209 32.8382906,41.0537729 C33.2282295,40.8685714 33.3940904,40.402442 33.2088889,40.0126984 C33.0240781,39.6231502 32.5577534,39.4574847 32.1680098,39.6422955 L32.1680098,39.6422955 Z" id="Shape"></path>
                                <path d="M46.9681074,22.1852991 C47.2171917,21.8328694 47.1333822,21.3452503 46.7809524,21.0961661 C46.4287179,20.8470818 45.9409035,20.9310867 45.6918193,21.2833211 C39.8220269,29.588083 31.5663004,35.6839072 22.4453236,38.448254 C22.0323321,38.5734799 21.7988767,39.0097192 21.9241026,39.4227106 C22.0262759,39.760293 22.3363126,39.9777289 22.6715507,39.9777289 C22.7467643,39.9777289 22.8229548,39.9667888 22.8985592,39.9439316 C32.3506716,37.0793651 40.8986569,30.7725519 46.9681074,22.1852991 L46.9681074,22.1852991 Z" id="Shape"></path>
                                <path d="M25.5962882,17.9934554 C30.0235409,14.3023199 33.7650794,9.7006105 36.4167033,4.68571429 C36.618315,4.30417582 36.4725763,3.83140415 36.0910379,3.62959707 C35.709304,3.42739927 35.2367277,3.57372405 35.035116,3.95526252 C32.477851,8.79199023 28.8679853,13.23116 24.5954579,16.7931624 C24.264127,17.0695971 24.2191941,17.5622955 24.4956288,17.8938217 C24.6501587,18.0792186 24.8724786,18.1747497 25.0961661,18.1747497 C25.2725763,18.1747497 25.4499634,18.1153602 25.5962882,17.9934554 L25.5962882,17.9934554 Z" id="Shape"></path>
                                <path d="M59.5033944,25.3440781 C59.6083028,25.391746 59.7182906,25.4142125 59.8263248,25.4142125 C60.1232723,25.4142125 60.407326,25.2438584 60.5382173,24.9558974 C60.7019292,24.5958486 60.8621245,24.2303297 61.0148962,23.8691087 C61.1831013,23.471746 60.9971184,23.0132357 60.5997558,22.8450305 C60.2021978,22.6768254 59.7436874,22.8626129 59.5756777,23.2601709 C59.4281807,23.6086935 59.2732601,23.961514 59.115409,24.3092552 C58.9368498,24.7023199 59.110525,25.1655189 59.5033944,25.3440781 L59.5033944,25.3440781 Z" id="Shape"></path>
                                <path d="M58.819243,26.7340659 C58.4420024,26.5246398 57.9664957,26.6610012 57.7568742,27.0382418 C56.6886447,28.9635165 55.4674481,30.83663 54.1270818,32.6050305 C49.1983394,39.1091575 42.8678877,44.0519658 35.8208547,46.8987546 C35.4205617,47.0605128 35.2273504,47.5158974 35.3889133,47.9159951 C35.5117949,48.2203663 35.8046398,48.4049817 36.1136996,48.4049817 C36.2111844,48.4049817 36.3104274,48.3866178 36.4061538,48.3479365 C43.7149695,45.3952625 50.2734066,40.2779976 55.3726984,33.549011 C56.7576068,31.7218071 58.0194383,29.7863736 59.1236142,27.7964347 C59.3328449,27.4189988 59.1966789,26.9434921 58.819243,26.7340659 L58.819243,26.7340659 Z" id="Shape"></path>
                                <path d="M37.3026618,21.1203907 C36.5137973,22.0083028 35.6706227,22.8774603 34.7967766,23.7034432 C34.4832234,24 34.4689621,24.4944567 34.7655189,24.8082051 C34.9192674,24.9709402 35.1261538,25.0527961 35.3336264,25.0527961 C35.5260562,25.0527961 35.7192674,24.9820757 35.8700855,24.8392674 C36.7771429,23.9822222 37.6521612,23.0802442 38.4709158,22.1583394 C38.7577045,21.8356044 38.7284005,21.3417338 38.4056654,21.0551404 C38.0831258,20.7687424 37.5892552,20.7976557 37.3026618,21.1203907 L37.3026618,21.1203907 Z" id="Shape"></path>
                                <path d="M31.5160928,19.0892308 C31.2017582,19.3850061 31.1863248,19.8794628 31.4821001,20.1937973 C31.6358486,20.3573138 31.8435165,20.4399512 32.0515751,20.4399512 C32.2434188,20.4399512 32.4358486,20.3696215 32.5866667,20.22779 C36.2596337,16.7736264 38.8626129,13.342906 40.5442735,9.73929182 C40.7267399,9.34837607 40.557558,8.88322344 40.1664469,8.70075702 C39.7755311,8.5182906 39.3103785,8.68727717 39.1279121,9.07838828 C37.5318193,12.4989499 35.0419536,15.7735775 31.5160928,19.0892308 L31.5160928,19.0892308 Z" id="Shape"></path>
                                <path d="M28.9558974,21.3612698 C28.3069109,21.9084737 27.6266667,22.4648596 26.8764835,23.0620757 C26.5387057,23.3308913 26.4830281,23.8226129 26.7518437,24.1601954 C26.9059829,24.3539927 27.1337729,24.4547985 27.3637118,24.4547985 C27.5342613,24.4547985 27.7059829,24.3991209 27.849768,24.2846398 C28.6114774,23.6782418 29.3028571,23.112674 29.9629792,22.5558974 C30.2929426,22.2777045 30.3349451,21.7846154 30.0565568,21.454652 C29.7787546,21.1250794 29.2854701,21.0830769 28.9558974,21.3612698 L28.9558974,21.3612698 Z" id="Shape"></path>
                            </g>
                        </g>
                    </g>
                    <g id="flaticon1455889590-svg" transform="translate(116.666667, 0.000000)" fill="#000000" sketch:type="MSShapeGroup">
                        <g id="Capa_1">
                            <g id="Group">
                                <path d="M27.3721673,10.3675539 C27.4666667,10.660583 27.5437262,10.9619265 27.6013181,11.2628644 C27.6755387,11.6514068 28.0156147,11.9217237 28.3970596,11.9217237 C28.4477567,11.9217237 28.4990621,11.9170596 28.5505703,11.9071229 C28.990621,11.8229658 29.2789861,11.3979214 29.1948289,10.9578707 C29.1246641,10.5918378 29.0309759,10.2258048 28.9161977,9.86970849 C28.77891,9.4434474 28.3224335,9.20882129 27.8953612,9.34671736 C27.4686946,9.48420786 27.234474,9.94129278 27.3721673,10.3675539 L27.3721673,10.3675539 Z" id="Shape"></path>
                                <path d="M19.1067174,4.10808619 C19.1059062,4.55604563 19.4684918,4.91984791 19.9164512,4.92065906 C22.2586565,4.92471483 24.5525982,6.04593156 26.0530292,7.92030418 C26.2132319,8.12025349 26.448872,8.22448669 26.6869455,8.22448669 C26.8645881,8.22448669 27.0436502,8.16628644 27.193308,8.04664132 C27.5431179,7.76659062 27.599493,7.25617237 27.3196451,6.90636248 C25.5150317,4.65196451 22.7483904,3.30301648 19.9192902,3.29835234 L19.9178707,3.29835234 C19.4705196,3.29835234 19.1075285,3.66053232 19.1067174,4.10808619 L19.1067174,4.10808619 Z" id="Shape"></path>
                                <path d="M22.622256,31.4701141 L18.9775412,31.4701141 C18.5295817,31.4701141 18.1663878,31.833308 18.1663878,32.2812674 C18.1663878,32.7292269 18.5295817,33.0924208 18.9775412,33.0924208 L22.622256,33.0924208 C23.0702155,33.0924208 23.4334094,32.7292269 23.4334094,32.2812674 C23.4334094,31.833308 23.0702155,31.4701141 22.622256,31.4701141 L22.622256,31.4701141 Z" id="Shape"></path>
                                <path d="M76.5876806,37.487858 L74.100076,35.0000507 C72.5081876,33.4081622 70.0274778,33.2347782 68.2415209,34.4772624 L66.6161724,32.8521166 C66.8607351,32.8845627 67.025602,32.9060583 67.0343219,32.9060583 C67.210545,32.9060583 67.3831179,32.8486692 67.5250697,32.7409886 C67.6964259,32.6105957 67.8087706,32.417744 67.8379721,32.2046134 L69.8559189,17.4166793 C69.9165526,16.9729785 69.6060837,16.5639544 69.16218,16.5033207 L65.6750317,16.0263625 C63.4443599,15.7219772 61.3645627,17.0865399 60.6943473,19.1566033 L52.8221039,18.082839 C52.2646388,18.0065906 51.7083904,17.9844867 51.1584284,18.0116603 L51.1584284,14.4257541 C51.1584284,12.7176679 50.4934854,11.113815 49.2875032,9.91046895 C48.0847655,8.70489227 46.4817237,8.04076046 44.7734347,8.04076046 C43.0681876,8.04076046 41.464943,8.70489227 40.2589607,9.9112801 C39.0531812,11.1176679 38.3896578,12.7211153 38.3910773,14.4257541 L38.3910773,18.7560963 L35.2535361,18.7560963 L32.0360963,15.5384537 C32.2713308,14.580076 32.3986819,13.5797212 32.3986819,12.5497592 C32.3986819,5.63427123 26.7725222,0.00811153359 19.8570342,0.00811153359 C13.5553866,0.00811153359 8.32648923,4.68035488 7.44740177,10.7421039 L1.66996198,16.5195437 C0.593155894,17.5963498 0,19.0282383 0,20.5513815 C0,22.0743219 0.593155894,23.5062104 1.67016477,24.5832193 L14.7704943,37.6835488 L14.7704943,39.0410139 C14.7704943,43.9600507 18.7723194,47.9618758 23.6911534,47.9618758 L24.9648669,47.9618758 L25.6054753,48.6020786 C28.7334854,51.7300887 32.8407605,53.2935868 36.949455,53.2935868 C41.0573384,53.2935868 45.1666413,51.7292776 48.2936375,48.6020786 L56.3155387,40.609379 L64.887199,49.1883397 C65.0455767,49.3467174 65.2532319,49.4260076 65.4606844,49.4260076 C65.6681369,49.4260076 65.8759949,49.3467174 66.0341698,49.1883397 L76.5876806,38.6348289 C76.904436,38.3182763 76.904436,37.8044106 76.5876806,37.487858 L76.5876806,37.487858 Z M57.126692,39.1263878 L57.126692,32.9861597 C58.4,32.8137896 59.6286946,32.2403042 60.6049176,31.2638783 C60.9679087,30.90109 61.2775665,30.4993663 61.5353105,30.065602 L65.0421293,33.572218 L58.3073257,40.3070215 L57.126692,39.1263878 L57.126692,39.1263878 Z M47.6824335,31.1845881 L44.1506717,27.6528264 L44.3852978,25.9358175 C44.3863118,25.9283143 44.3877313,25.9212167 44.388948,25.9139163 C44.8624588,26.1459062 45.3655767,26.3162484 45.8946515,26.4202788 C46.2898859,26.4979468 46.6865399,26.5362738 47.0805577,26.5362738 C48.0275792,26.5362738 48.9565526,26.3107731 49.8066413,25.8798479 L51.2723954,27.808365 C50.8246388,28.1168061 50.4004056,28.466616 50.0078074,28.859417 L47.6824335,31.1845881 L47.6824335,31.1845881 Z M51.4526743,19.624436 C51.5573131,20.1835234 51.5550824,20.7499113 51.4445627,21.3120406 C51.2148035,22.4811153 50.5435741,23.4905957 49.5543726,24.1549303 C48.5651711,24.8192649 47.3770342,25.0589607 46.2075539,24.8285932 C45.7062611,24.730038 45.2366033,24.5513815 44.8058809,24.2976933 C45.2864892,23.0434474 46.1053485,21.9437262 47.2010139,21.1106717 C48.4437009,20.1658809 49.9214195,19.6552598 51.4526743,19.624436 L51.4526743,19.624436 Z M56.3155387,26.2462864 C55.0499366,26.2462864 53.8257034,26.5105196 52.702256,27.0085678 L51.1480862,24.963853 C52.1192395,24.0894297 52.779924,22.9302915 53.0364512,21.6251458 C53.1585298,21.0042079 53.1818504,20.3796198 53.1110773,19.7596958 L57.5977693,20.371711 L56.7959442,26.260076 C56.6365526,26.2513561 56.4765526,26.2462864 56.3155387,26.2462864 L56.3155387,26.2462864 Z M56.3155387,27.8685932 C57.7358682,27.8685932 59.0933333,28.2733587 60.2591635,29.0252978 C60.0496831,29.4262104 59.7824081,29.7922433 59.4579468,30.1167047 C57.718834,31.8556147 54.8891255,31.8558175 53.1500127,30.1167047 C52.8269708,29.7936629 52.5617237,29.4312801 52.3542712,29.0364512 C53.5241572,28.2772117 54.8881115,27.8685932 56.3155387,27.8685932 L56.3155387,27.8685932 Z M66.340583,31.1813435 L65.0575412,31.0059316 L66.8574905,17.8255006 L68.1391128,18.0007098 L66.340583,31.1813435 L66.340583,31.1813435 Z M61.2078074,20.8638783 C61.6537389,20.9220786 62.0605323,20.6136375 62.1209632,20.1697338 C62.3322687,18.6212421 63.7118378,17.5170596 65.2487706,17.6164259 L63.582256,29.8182003 L62.62327,28.8592142 C61.4418251,27.6777693 59.9870215,26.8700634 58.4018251,26.4918631 L59.2052725,20.5905196 L61.2078074,20.8638783 L61.2078074,20.8638783 Z M46.2193156,19.8191128 C45.1733333,20.6142459 44.3337896,21.6087199 43.7357668,22.7360203 L40.0135868,19.0138403 C40.0135868,19.0138403 40.0156147,14.298403 40.0180482,14.2353359 L49.5314575,14.2353359 C49.533891,14.2988086 49.5361217,18.2444613 49.5361217,18.2444613 C48.3483904,18.5287706 47.22109,19.0576426 46.2193156,19.8191128 L46.2193156,19.8191128 Z M44.7736375,9.66326996 C46.0477567,9.66326996 47.2429911,10.1578707 48.1405323,11.0578454 C48.5937643,11.5098606 48.9441825,12.0379214 49.1806337,12.6130292 L40.3684664,12.6130292 C40.604512,12.0385298 40.9543219,11.5108745 41.4067427,11.058251 C42.3059062,10.1586819 43.501749,9.66326996 44.7736375,9.66326996 L44.7736375,9.66326996 Z M39.0840051,20.378403 C39.0840051,20.378403 43.0353359,24.3212167 43.0750824,24.3487959 C42.9424588,24.7924968 42.8418758,25.2489734 42.7782003,25.7166033 L42.7104689,26.2128264 L36.8762484,20.3786058 L39.0840051,20.3786058 L39.0840051,20.378403 Z M46.5354626,32.3317617 L44.0379214,34.8291001 L29.6196705,20.411052 C30.381749,19.4666667 31.0089734,18.4101394 31.473967,17.2700634 L46.5354626,32.3317617 L46.5354626,32.3317617 Z M30.7767807,12.5497592 C30.7767807,12.9273511 30.7575158,13.3004816 30.7197972,13.6683397 C28.0592142,16.2536882 24.4660076,17.3465146 21.3678074,16.54327 C21.3083904,15.5262864 20.8888213,14.5774398 20.1622307,13.8512548 C19.377237,13.0660583 18.3334854,12.6337136 17.2234221,12.6337136 C17.0453739,12.6337136 16.8697592,12.6489227 16.6959696,12.6708238 C15.1687706,9.35807351 16.1725729,5.03908745 19.2525222,1.95934094 C19.3664892,1.84537389 19.4782256,1.73931559 19.5885425,1.63751584 C19.6781749,1.63528517 19.7674018,1.63062104 19.8576426,1.63062104 C25.8782256,1.63062104 30.7767807,6.52897338 30.7767807,12.5497592 L30.7767807,12.5497592 Z M17.2234221,14.2560203 C17.9001267,14.2560203 18.5366793,14.5196451 19.0152598,14.9982256 C19.4938403,15.4768061 19.7574651,16.1133587 19.7574651,16.7902662 C19.7574651,17.4671736 19.4938403,18.1035234 19.0152598,18.5821039 C18.5366793,19.0606844 17.9001267,19.3243093 17.2234221,19.3243093 C16.5465146,19.3243093 15.909962,19.0606844 15.4313815,18.5819011 C14.952801,18.1035234 14.6891762,17.4671736 14.6891762,16.7902662 C14.6891762,16.1133587 14.952801,15.4768061 15.4313815,14.9982256 C15.909962,14.5196451 16.5465146,14.2560203 17.2234221,14.2560203 L17.2234221,14.2560203 Z M17.0532826,1.99726236 C14.379924,5.38423321 13.6289987,9.71092522 15.1499113,13.1911787 C14.8382256,13.3714575 14.5458048,13.5898606 14.2844106,13.8514575 C13.4992142,14.6364512 13.0668695,15.6804056 13.0668695,16.7904689 C13.0668695,17.9005323 13.499417,18.9444867 14.2844106,19.7292776 C15.0694043,20.514474 16.1131559,20.9468188 17.2234221,20.9468188 C18.3336882,20.9468188 19.377237,20.514474 20.1622307,19.7294804 C20.612218,19.279493 20.941749,18.7429151 21.1451458,18.1590875 C21.8899873,18.3359189 22.6557161,18.423929 23.4291508,18.423929 C25.7210646,18.423929 28.0764512,17.6628644 30.1325222,16.2435488 C28.615057,20.452218 24.5826109,23.4695057 19.8576426,23.4695057 C13.836654,23.4695057 8.93809886,18.5711534 8.93809886,12.549962 C8.93789607,7.49830165 12.3869202,3.238327 17.0532826,1.99726236 L17.0532826,1.99726236 Z M14.7704943,27.3833207 L3.93551331,16.5483397 L7.33079848,13.1530545 C7.56136882,17.9996958 10.5569582,22.131711 14.7702915,24.0095311 L14.7702915,27.3833207 L14.7704943,27.3833207 Z M6.14306717,26.7619772 L8.99913815,23.9059062 L10.278327,25.1850951 L7.42225602,28.041166 L6.14306717,26.7619772 L6.14306717,26.7619772 Z M1.62230672,20.5513815 C1.62230672,19.4751838 2.03761724,18.4638783 2.78996198,17.69673 L7.8521673,22.7589354 L4.99609632,25.6150063 L2.8173384,23.4362484 C2.04674271,22.6656527 1.62230672,21.6409632 1.62230672,20.5513815 L1.62230672,20.5513815 Z M8.56922687,29.1881369 L11.4252978,26.3320659 L14.7704943,29.6772624 L14.7704943,35.3894043 L8.56922687,29.1881369 L8.56922687,29.1881369 Z M16.5047402,40.3053992 C18.0696578,39.5903676 19.9241572,39.9046895 21.1690748,41.1494043 C22.4829404,42.46327 22.7443346,44.5140684 21.8666667,46.1085932 C19.1219265,45.3994423 17.0001521,43.1288213 16.5047402,40.3053992 L16.5047402,40.3053992 Z M23.5591381,46.3363245 C24.3216223,44.5404309 24.1265399,42.4825349 23.021749,40.8577947 L27.0641318,36.8152091 L31.870621,36.8152091 C31.9342966,36.8152091 31.9973638,36.8176426 32.0606337,36.820076 L32.0606337,46.3349049 C31.9975665,46.3371356 23.6031432,46.3371356 23.5591381,46.3363245 L23.5591381,46.3363245 Z M36.6329024,41.5774905 C36.6329024,43.5619772 35.4125222,45.2660076 33.6829404,45.9804309 L33.6829404,37.1741445 C35.4123194,37.8887706 36.6329024,39.5930038 36.6329024,41.5774905 L36.6329024,41.5774905 Z M47.1466667,47.4551077 C41.6981496,52.9030165 32.9393156,53.072142 27.2857795,47.9618758 L31.870621,47.9618758 C35.3910266,47.9618758 38.2550063,45.0978961 38.2550063,41.5774905 C38.2550063,38.0570849 35.3910266,35.1929024 31.870621,35.1929024 L27.5394677,35.1929024 L27.5394677,26.1972117 C27.5394677,25.7492522 27.1762738,25.3860583 26.7283143,25.3860583 C26.2803549,25.3860583 25.917161,25.7492522 25.917161,26.1972117 L25.917161,35.6682383 L21.9327757,39.6526236 C20.3757668,38.348289 18.2791381,37.9731305 16.392801,38.607858 L16.392801,24.6010646 C17.4941445,24.9180228 18.6555133,25.0916096 19.8574398,25.0916096 C23.2154119,25.0916096 26.2669708,23.7625349 28.5203549,21.6058809 L42.8907478,35.976071 L40.925526,37.9412928 C40.6085678,38.2580482 40.6085678,38.771711 40.925526,39.0882636 C41.2420786,39.4052218 41.756147,39.4052218 42.0724968,39.0882636 L51.0807605,30.0802028 C51.336071,30.507275 51.6428897,30.903929 52.0026362,31.2636755 C52.9851458,32.246185 54.2229658,32.8202788 55.5043853,32.9887959 L55.5043853,39.1263878 L47.1466667,47.4551077 L47.1466667,47.4551077 Z M59.4544994,41.4537896 L66.1893029,34.7191888 L67.6173384,36.1472243 C67.9342966,36.4641825 68.4479594,36.4641825 68.7643093,36.1472243 C69.8693029,35.0426362 71.6351838,34.99782 72.7975665,36.006692 L63.3985298,45.405526 L59.4544994,41.4537896 L59.4544994,41.4537896 Z M65.4606844,47.4676806 L64.5455006,46.5524968 L73.9520406,37.1461597 L74.8670215,38.0613435 L65.4606844,47.4676806 L65.4606844,47.4676806 Z" id="Shape"></path>
                            </g>
                        </g>
                    </g>
                    <g id="selection" transform="translate(23.333333, 75.555556)" fill="#000000" sketch:type="MSShapeGroup">
                        <g id="Slice-1">
                            <g id="Page-1">
                                <path d="M13.1910069,0.512358078 C13.0073926,0.195700806 12.6630698,0 12.2894868,0 L11.6981528,0 L1.03544819,0 C0.661791354,0 0.31739457,0.195700806 0.133780324,0.512358078 C-0.0497600342,0.828152912 -0.0441444676,1.216536 0.148779797,1.52744371 L2.98589699,6.09827571 L5.7628685,6.09827571 L5.7628685,6.09892254 L7.93128995,6.09892254 L5.46738626,10.0774056 L5.79109414,10.5993224 C5.97847669,10.9013901 6.31489348,11.0855918 6.67739306,11.0855918 C7.04026211,11.0855918 7.376605,10.9013901 7.56398758,10.5993224 L10.6347419,5.63033301 C10.8211639,5.32761844 10.8306956,4.95231561 10.6605292,4.64061733 C10.4905844,4.32913469 10.1698321,4.10425484 9.80762806,4.08492194 L4.15356536,4.08492194 L2.86922621,2.01414436 L12.873949,2.01493492 L13.1760813,1.52744371 C13.3690055,1.216536 13.3747689,0.828152912 13.1910069,0.512358078" id="Fill-1"></path>
                            </g>
                        </g>
                    </g>
                    <g id="flaticon1455889601-svg" fill="#000000" sketch:type="MSShapeGroup">
                        <g id="Capa_1">
                            <g id="Group">
                                <path d="M27.5796586,38.0798562 C27.2621024,38.0798562 27.0046361,38.3373226 27.0046361,38.6548787 L27.0046361,42.035867 C27.0046361,42.3534232 27.2621024,42.6108895 27.5796586,42.6108895 C27.8972147,42.6108895 28.154681,42.3534232 28.154681,42.035867 L28.154681,38.6548787 C28.154681,38.3373226 27.8972147,38.0798562 27.5796586,38.0798562 L27.5796586,38.0798562 Z" id="Shape"></path>
                                <path d="M31.8313747,42.2894519 L31.8313747,38.7396945 C31.8313747,38.4221384 31.5739084,38.1646721 31.2563522,38.1646721 C30.938796,38.1646721 30.6813297,38.4221384 30.6813297,38.7396945 L30.6813297,42.2894519 C30.6813297,42.6070081 30.938796,42.8644744 31.2563522,42.8644744 C31.5739084,42.8644744 31.8313747,42.6070081 31.8313747,42.2894519 L31.8313747,42.2894519 Z" id="Shape"></path>
                                <path d="M31.7538904,46.0332794 C31.6705121,46.0557053 31.5878527,46.067062 31.5083558,46.067062 C31.1907996,46.067062 30.9333333,46.3245283 30.9333333,46.6420845 C30.9333333,46.9596406 31.1907996,47.2171069 31.5083558,47.2171069 C31.6887691,47.2171069 31.8719137,47.192381 32.0529021,47.1436478 C32.3595328,47.0611321 32.5410961,46.7455885 32.4585804,46.4389578 C32.3759209,46.132327 32.0605211,45.9510512 31.7538904,46.0332794 L31.7538904,46.0332794 Z" id="Shape"></path>
                                <path d="M58.8345732,48.4594429 C58.8345732,47.347062 58.3123091,46.3308535 57.4395687,45.6878347 C57.6898473,45.1714645 57.8202336,44.6052111 57.8202336,44.0219946 C57.8202336,42.6750045 57.1204313,41.4891644 56.0659838,40.806469 C56.0807907,40.6683199 56.0885535,40.5285894 56.0885535,40.3881402 C56.0885535,38.2296496 54.3330099,36.4736748 52.1752381,36.4736748 C50.1215454,36.4736748 48.4335669,38.0649057 48.2754358,40.0793531 C46.470009,40.3867026 45.0906739,41.9614016 45.0906739,43.8530818 C45.0906739,44.1766757 45.1304942,44.4943756 45.2097035,44.8030189 C44.7092902,45.0762983 44.3385445,45.5453729 44.1900449,46.0991195 C44.0209883,46.0779874 43.8506379,46.0672058 43.679425,46.0672058 C41.8954178,46.0672058 40.3474573,47.2257323 39.8043486,48.8644025 C39.3513747,48.7026774 38.8677808,48.6448877 38.361761,48.7177718 C38.035292,47.5208625 36.9515184,46.6589039 35.6498113,46.6589039 C35.595903,46.6589039 35.5421384,46.6604852 35.488805,46.6633603 C35.5004492,46.5732255 35.506487,46.4815094 35.506487,46.3886433 C35.506487,45.2403235 34.578257,44.3046181 33.4326685,44.2923989 C33.1084996,43.5414196 32.359389,43.0244744 31.508212,43.0244744 C31.1906559,43.0244744 30.9331896,43.2819407 30.9331896,43.5994969 C30.9331896,43.917053 31.1906559,44.1745193 31.508212,44.1745193 C31.980593,44.1745193 32.3832525,44.5275831 32.4449236,44.9959389 C32.466487,45.1602516 32.5577718,45.3070261 32.6954897,45.3991734 C32.8334951,45.4913208 33.0038455,45.5196406 33.1639892,45.4763702 C33.2480863,45.4539443 33.3308895,45.4424438 33.4100988,45.4424438 C33.9319317,45.4424438 34.356442,45.8669542 34.356442,46.3887871 C34.356442,46.7810961 34.1195328,47.1269721 33.7526685,47.2697215 C33.5900809,47.3329739 33.4614196,47.4656604 33.4128302,47.6331357 C33.3287332,47.9232345 33.5378976,48.2157772 33.5378976,48.2157772 C33.6290386,48.3714645 33.7877448,48.4752561 33.9667206,48.4963881 C34.1469901,48.5178077 34.3245283,48.4532615 34.4491644,48.3233064 C34.7670081,47.9916622 35.1933872,47.8090925 35.6498113,47.8090925 C36.5603594,47.8090925 37.2904942,48.5228392 37.3120575,49.434106 C37.3163702,49.619982 37.4105301,49.7922013 37.5644924,49.8965678 C37.7184546,50.0010782 37.9136748,50.0240791 38.087619,49.9595328 C38.1661096,49.9303504 38.4605211,49.837628 38.7773585,49.837628 C39.1699551,49.837628 39.5484636,49.9566577 39.8716262,50.1820665 C40.0370889,50.297071 40.2504223,50.3173405 40.4342857,50.2355436 C40.6181491,50.1536029 40.7459479,49.9813836 40.7709614,49.7817071 C40.9539623,48.3198562 42.2044924,47.2175382 43.6795687,47.2175382 C43.9699551,47.2175382 44.2574663,47.2602336 44.5340521,47.3444744 C44.717628,47.4003953 44.9173046,47.3608625 45.0659479,47.2391015 C45.2144474,47.1171968 45.292363,46.9293082 45.273531,46.7381132 C45.2705121,46.7066307 45.2686433,46.6750045 45.2686433,46.6426595 C45.2686433,46.3249596 45.4289308,46.041186 45.6766217,45.868823 C46.1544654,46.5607188 46.9316083,47.0238994 47.8075112,47.0814016 C47.8204492,47.0822642 47.8332435,47.0826954 47.845894,47.0826954 C48.1463432,47.0826954 48.3992093,46.8493801 48.4190476,46.5454807 C48.4398922,46.2284996 48.1999641,45.9547889 47.8829829,45.9339443 C47.2504582,45.8922552 46.7158311,45.4887332 46.4638275,44.9269362 C46.4014376,44.7879245 46.2407188,44.410566 46.2407188,43.853513 C46.2407188,42.3764241 47.4425157,41.1744834 48.9197484,41.1744834 C49.6429829,41.1744834 50.3154717,41.4578257 50.8154537,41.9611141 C50.0787062,43.2461456 50.2549506,44.9161545 51.3515184,46.0125786 C51.4636478,46.1248518 51.6109973,46.1810602 51.7580593,46.1810602 C51.9051213,46.1810602 52.0524708,46.1248518 52.1646002,46.0125786 C52.3892902,45.7880323 52.3892902,45.4238994 52.1646002,45.1994969 C51.3188859,44.3536388 51.301779,42.988248 52.1131357,42.1212579 C52.1299551,42.1032884 52.1710692,42.0595867 52.1748068,42.0557053 C52.6676011,41.6004313 53.3139263,41.34354 53.991159,41.34354 C55.4683917,41.34354 56.6703324,42.5453369 56.6703324,44.0225696 C56.6703324,44.5740162 56.5037197,45.1037556 56.1884636,45.5545732 C56.0924349,45.6918598 56.0610961,45.8640791 56.1026415,46.0265229 C56.1440431,46.188823 56.2543037,46.3249596 56.4045283,46.3992812 C57.1940341,46.790584 57.6845283,47.5800898 57.6845283,48.460018 C57.6845283,49.5051213 56.979407,50.419407 55.9698113,50.6836298 C55.8197305,50.7228751 55.6919317,50.821204 55.61531,50.9560467 C55.538832,51.0908895 55.5198562,51.2510332 55.5631267,51.3999641 C55.6247978,51.6127224 55.6559928,51.8322372 55.6559928,52.052327 C55.6559928,52.0690027 55.6558491,52.0855346 55.6554178,52.102354 L3.17915544,52.102354 C3.17886792,52.0856783 3.18073675,51.9355975 3.18519317,51.8773765 C3.19726864,51.7162264 3.22616352,51.5563702 3.27144654,51.3999641 C3.31457323,51.2510332 3.29574124,51.0910332 3.2191195,50.9560467 C3.14249775,50.821204 3.01484277,50.7230189 2.8647619,50.6836298 C1.85516622,50.418832 1.15004492,49.5045463 1.15004492,48.4594429 C1.15004492,47.7745912 1.44819407,47.1455166 1.9520575,46.7152561 C1.99000898,46.6829111 2.14972147,46.5643127 2.17617251,46.547062 C2.99917341,46.0098473 4.16546271,46.0168913 4.90163522,46.75292 C5.01390836,46.8651932 5.16097035,46.9214016 5.3081761,46.9214016 C5.45538185,46.9214016 5.60244385,46.8651932 5.71486074,46.75292 C5.93940701,46.5283738 5.93940701,46.1642408 5.71486074,45.9398383 C4.82415094,45.0489847 3.54012579,44.7893621 2.41696316,45.1550764 C2.2516442,44.8025876 2.16438455,44.4181851 2.16438455,44.0219946 C2.16438455,42.5449057 3.36618149,41.342965 4.8434142,41.342965 C5.4937646,41.342965 6.11407008,41.5820305 6.59881402,42.0039533 C6.37398023,42.4600898 6.25437556,42.9648158 6.25437556,43.4879425 C6.25437556,44.3861276 6.60456424,45.2309793 7.24039533,45.8668104 C7.35266846,45.9790836 7.49973046,46.035292 7.64693621,46.035292 C7.79414196,46.035292 7.94120395,45.9790836 8.05362084,45.8668104 C8.27816712,45.6422642 8.27816712,45.2781312 8.05362084,45.0537287 C7.63500449,44.6351123 7.40442049,44.0790656 7.40442049,43.4879425 C7.40442049,42.9165139 7.62163522,42.3790117 8.01423181,41.9655705 C8.5146451,41.4591195 9.18914645,41.1740521 9.91468104,41.1740521 C11.3919137,41.1740521 12.5937107,42.3758491 12.5937107,43.8530818 C12.5937107,44.2228212 12.519389,44.5814915 12.3727583,44.9188859 C12.3030368,45.0794609 12.3102246,45.2631806 12.3923091,45.4177179 C12.4743935,45.5723989 12.6224618,45.6810782 12.7945373,45.7132794 C13.1625517,45.7821384 13.4441689,46.0604492 13.5331536,46.4102066 C12.3014555,46.9950045 11.4978616,48.3007367 11.6206289,49.7371429 C11.647655,50.053549 11.9261096,50.2881581 12.2425157,50.2611321 C12.5589218,50.234106 12.793531,49.9556514 12.7665049,49.6392453 C12.6773765,48.5961545 13.331177,47.6595867 14.2860018,47.347637 C14.6269901,47.2403953 15.0397125,47.2173944 15.1548607,47.2173944 C16.6299371,47.2173944 17.8803235,48.3197125 18.0634681,49.7815633 C18.0884816,49.9813836 18.2162803,50.1536029 18.4001438,50.2353998 C18.5840072,50.3171968 18.797628,50.2969272 18.9626595,50.1819227 C19.2968913,49.9488949 19.7219766,49.8333154 20.1436119,49.8425157 C20.404097,49.8425157 20.6726325,49.9164061 20.805319,49.9671518 C20.805894,49.9672956 20.806469,49.9674394 20.807044,49.9677269 C21.2948068,50.1773226 21.6373765,50.662354 21.6373765,51.225876 C21.6373765,51.5434322 21.8948428,51.8008985 22.2123989,51.8008985 C22.5299551,51.8008985 22.7874214,51.5434322 22.7874214,51.225876 C22.7874214,50.3143217 22.2990836,49.5166217 21.5718239,49.0744295 C21.752956,48.3507637 22.4113567,47.8089488 23.1843306,47.8089488 C23.6407547,47.8089488 24.0672776,47.9916622 24.3851213,48.3231626 C24.5099012,48.4531177 24.6884456,48.5170889 24.8674214,48.4962444 C25.0465409,48.4751123 25.2052471,48.3713208 25.2963881,48.2156334 C25.2963881,48.2156334 25.5312848,47.8946271 25.4214555,47.6329919 C25.3538904,47.4722731 25.2442049,47.3328302 25.0816173,47.2695777 C24.7147529,47.1268284 24.4778437,46.7809524 24.4778437,46.3886433 C24.4778437,45.8668104 24.902354,45.4423001 25.4241869,45.4423001 C25.5032525,45.4423001 25.5860557,45.4536568 25.6701527,45.4762264 C25.8301527,45.5193531 26.0007907,45.4910332 26.1385085,45.3990296 C26.2762264,45.3070261 26.367655,45.1601078 26.3892183,44.9959389 C26.4508895,44.5275831 26.853549,44.1743756 27.3259299,44.1743756 C27.6434861,44.1743756 27.9009524,43.9169093 27.9009524,43.5993531 C27.9009524,43.2817969 27.6434861,43.0243306 27.3259299,43.0243306 C26.4748967,43.0243306 25.7259299,43.5414196 25.4016173,44.2922552 C24.2560288,44.3044744 23.3277987,45.2401797 23.3277987,46.3884996 C23.3277987,46.4813657 23.3338365,46.5730818 23.3454807,46.6632165 C23.2920036,46.6601977 23.2383827,46.6587601 23.1843306,46.6587601 C21.9057682,46.6587601 20.8103504,47.5338005 20.4759748,48.7163342 C19.9877808,48.6481941 19.48708,48.7009524 19.0297934,48.864115 C18.4866846,47.225301 16.9387242,46.0669182 15.154717,46.0669182 C14.983504,46.0669182 14.8131536,46.0775562 14.644097,46.098832 C14.4954537,45.5452291 14.1248518,45.0761545 13.6244385,44.8027314 C13.703504,44.4942318 13.7434681,44.1763881 13.7434681,43.8527942 C13.7434681,41.7414555 12.0257323,40.0237197 9.91439353,40.0237197 C8.91744834,40.0237197 7.98734951,40.3989218 7.28179695,41.0706918 C6.60025157,40.5070261 5.74030548,40.1927763 4.84312668,40.1927763 C2.7316442,40.1927763 1.01405211,41.9105121 1.01405211,44.0218509 C1.01405211,44.6050674 1.14443845,45.1713208 1.39471698,45.6876909 C0.522264151,46.3309973 0,47.347062 0,48.4594429 C0,49.8416532 0.822713387,51.07177 2.05599281,51.61531 C2.03773585,51.7599281 2.02853549,51.9056963 2.02853549,52.0516083 C2.02853549,52.3013118 2.05584906,52.5528841 2.10961366,52.7992812 C2.16725966,53.0633603 2.40100629,53.2515364 2.6714106,53.2515364 L56.1631626,53.2515364 C56.4335669,53.2515364 56.6674573,53.0630728 56.7249596,52.7991375 C56.7787242,52.5525966 56.805894,52.301168 56.805894,52.0516083 C56.805894,51.9055526 56.7968374,51.7599281 56.7784367,51.61531 C58.0117161,51.07177 58.8345732,49.8417969 58.8345732,48.4594429 L58.8345732,48.4594429 Z M51.5524888,41.0709793 C50.9698473,40.5162264 50.2338185,40.1644564 49.4338185,40.0585085 C49.5974124,38.6893801 50.7634142,37.6237197 52.1753819,37.6237197 C53.6728841,37.6237197 54.8932255,38.8224978 54.9346271,40.3109434 C54.6327403,40.2341779 54.3166217,40.1930638 53.9910153,40.1930638 C53.0938365,40.1930638 52.2340341,40.5071698 51.5524888,41.0709793 L51.5524888,41.0709793 Z" id="Shape"></path>
                                <path d="M26.8554178,50.9225517 C26.8019407,51.2355076 27.0122552,51.5326505 27.3253549,51.5861276 C27.3581312,51.5917341 27.3907637,51.5946092 27.422965,51.5946092 C27.6979695,51.5946092 27.9410602,51.3966577 27.9890746,51.116478 C28.1437556,50.2116801 28.8579335,49.5102965 29.7660377,49.3709973 C30.6141959,49.241186 31.4530099,49.6290386 31.9031087,50.3594609 C32.0695777,50.6297215 32.4237916,50.7139623 32.6943396,50.5473495 C32.9647439,50.3807367 33.048841,50.0265229 32.8822282,49.7561186 C32.1891824,48.6313747 30.8976819,48.0353639 29.5916622,48.2341779 C29.5391914,48.2422282 29.4880144,48.2538724 29.4364061,48.2643666 C29.1092183,47.1409164 28.1047978,46.3230907 26.9208266,46.2450314 C26.6038455,46.2227493 26.3301348,46.464115 26.3092902,46.7810961 C26.2883019,47.0979335 26.5283738,47.371788 26.8453549,47.3926325 C27.5813836,47.4410782 28.199389,47.9732615 28.3583827,48.690027 C27.5775022,49.1743396 27.0174304,49.9756334 26.8554178,50.9225517 L26.8554178,50.9225517 Z" id="Shape"></path>
                                <path d="M25.4877269,37.7085355 L33.3482839,37.7085355 C33.6658401,37.7085355 33.9233064,37.4510692 33.9233064,37.133513 L33.9233064,28.6391375 C33.9233064,28.5321833 33.893549,28.4273854 33.8371968,28.3365319 L31.8313747,25.0967116 L31.8313747,5.73024259 C31.8313747,5.66296496 31.8195867,5.5961186 31.7965858,5.53300988 L29.958239,0.497969452 C29.8754358,0.271123091 29.6595148,0.120179695 29.4180054,0.120179695 C29.176496,0.120179695 28.9607188,0.271123091 28.8779155,0.497969452 L27.0395687,5.53300988 C27.0164241,5.5961186 27.0046361,5.66296496 27.0046361,5.73024259 L27.0046361,25.0968553 L24.998814,28.3365319 C24.9424618,28.4275292 24.9127044,28.5321833 24.9127044,28.6391375 L24.9127044,37.133513 C24.9127044,37.4510692 25.1701707,37.7085355 25.4877269,37.7085355 L25.4877269,37.7085355 Z M30.6813297,6.30526505 L30.6813297,7.05696316 L28.154681,7.05696316 L28.154681,6.30526505 L30.6813297,6.30526505 L30.6813297,6.30526505 Z M28.154681,36.5584906 L28.154681,8.20700809 L30.6813297,8.20700809 L30.6813297,36.5584906 L28.154681,36.5584906 L28.154681,36.5584906 Z M32.7732615,28.8027314 L32.7732615,36.5584906 L31.8313747,36.5584906 L31.8313747,27.2815094 L32.7732615,28.8027314 L32.7732615,28.8027314 Z M29.4180054,2.3718239 L30.4342138,5.15522013 L28.4017969,5.15522013 L29.4180054,2.3718239 L29.4180054,2.3718239 Z M26.0627493,28.8027314 L27.0046361,27.2815094 L27.0046361,36.5584906 L26.0627493,36.5584906 L26.0627493,28.8027314 L26.0627493,28.8027314 Z" id="Shape"></path>
                            </g>
                        </g>
                    </g>
                    <g id="Group-3" transform="translate(112.222222, 28.888889)">
                        <mask id="mask-2" sketch:name="Mask" fill="white">
                            <use xlink:href="#path-1"></use>
                        </mask>
                        <use id="Mask" fill="#FFFFFF" sketch:type="MSShapeGroup" xlink:href="#path-1"></use>
                        <g id="flaticon1455889590-svg" mask="url(#mask-2)">
                            <g transform="translate(-6.666667, -42.222222)" id="Capa_1">
                                <g>
                                    <g id="Group" fill="#000000" sketch:type="MSShapeGroup">
                                        <path d="M37.63673,17.5887199 C37.7666667,17.991635 37.8726236,18.4059823 37.9518124,18.8197719 C38.0538657,19.3540177 38.5214702,19.7257034 39.0459569,19.7257034 C39.1156654,19.7257034 39.1862104,19.7192902 39.2570342,19.7056274 C39.8621039,19.5899113 40.2586058,19.0054753 40.1428897,18.4004056 C40.0464132,17.8971103 39.9175919,17.393815 39.7597719,16.9041825 C39.5710013,16.3180735 38.943346,15.9954626 38.3561217,16.1850697 C37.769455,16.3741191 37.4474018,17.0026109 37.63673,17.5887199 L37.63673,17.5887199 Z" id="Shape"></path>
                                        <path d="M26.2717364,8.98195184 C26.270621,9.59789607 26.7691762,10.0981242 27.3851204,10.0992395 C30.6056527,10.1048162 33.7598226,11.6464892 35.8229151,14.2237516 C36.0431939,14.4986819 36.367199,14.6420025 36.6945501,14.6420025 C36.9388086,14.6420025 37.185019,14.5619772 37.3907985,14.3974651 C37.8717871,14.0123954 37.9493029,13.3105703 37.564512,12.8295817 C35.0831686,9.72978454 31.2790368,7.87498099 27.3890241,7.86856781 L27.3870722,7.86856781 C26.7719645,7.86856781 26.2728517,8.36656527 26.2717364,8.98195184 L26.2717364,8.98195184 Z" id="Shape"></path>
                                        <path d="M31.105602,46.6047402 L26.0941191,46.6047402 C25.4781749,46.6047402 24.9787833,47.1041318 24.9787833,47.720076 C24.9787833,48.3360203 25.4781749,48.8354119 26.0941191,48.8354119 L31.105602,48.8354119 C31.7215463,48.8354119 32.2209379,48.3360203 32.2209379,47.720076 C32.2209379,47.1041318 31.7215463,46.6047402 31.105602,46.6047402 L31.105602,46.6047402 Z" id="Shape"></path>
                                        <path d="M105.308061,51.5458048 L101.887605,48.1250697 C99.6987579,45.9362231 96.287782,45.69782 93.8320913,47.4062357 L91.597237,45.1716603 C91.9335108,45.2162738 92.1602028,45.2458302 92.1721926,45.2458302 C92.4144994,45.2458302 92.6517871,45.1669202 92.8469708,45.0188593 C93.0825856,44.8395691 93.2370596,44.574398 93.2772117,44.2813435 L96.0518885,23.9479341 C96.1352598,23.3378454 95.708365,22.7754373 95.0979975,22.6920659 L90.3031686,22.0362484 C87.2359949,21.6177186 84.3762738,23.4939924 83.4547275,26.3403295 L72.6303929,24.8639037 C71.8638783,24.7590621 71.0990368,24.7286692 70.342839,24.766033 L70.342839,19.8354119 C70.342839,17.4867934 69.4285425,15.2814956 67.7703169,13.6268948 C66.1165526,11.9692269 63.9123701,11.0560456 61.5634728,11.0560456 C59.2187579,11.0560456 57.0142966,11.9692269 55.356071,13.6280101 C53.6981242,15.2867934 52.7857795,17.4915336 52.7877313,19.8354119 L52.7877313,25.7896324 L48.4736122,25.7896324 L44.0496324,21.3653739 C44.3730798,20.0476046 44.5481876,18.6721166 44.5481876,17.2559189 C44.5481876,7.74712294 36.812218,0.0111533587 27.3034221,0.0111533587 C18.6386565,0.0111533587 11.4489227,6.43548796 10.2401774,14.7703929 L2.29619772,22.7143726 C0.815589354,24.194981 0,26.1638276 0,28.2581496 C0,30.3521926 0.815589354,32.3210393 2.29647655,33.8019265 L20.3094297,51.8148796 L20.3094297,53.6813942 C20.3094297,60.4450697 25.8119392,65.9475792 32.5753359,65.9475792 L34.326692,65.9475792 L35.2075285,66.827858 C39.5085425,71.128872 45.1560456,73.2786819 50.8055006,73.2786819 C56.4538403,73.2786819 62.1041318,71.1277567 66.4037516,66.827858 L77.4338657,55.8378961 L89.2198986,67.633967 C89.4376679,67.8517364 89.7231939,67.9607605 90.0084411,67.9607605 C90.2936882,67.9607605 90.579493,67.8517364 90.7969835,67.633967 L105.308061,53.1228897 C105.743599,52.6876299 105.743599,51.9810646 105.308061,51.5458048 L105.308061,51.5458048 Z M78.5492015,53.7987833 L78.5492015,45.3559696 C80.3,45.1189607 81.989455,44.3304183 83.3317617,42.9878327 C83.8308745,42.4889987 84.256654,41.9366286 84.611052,41.3402028 L89.4329278,46.1617997 L80.1725729,55.4221546 L78.5492015,53.7987833 L78.5492015,53.7987833 Z M65.563346,42.8788086 L60.7071736,38.0226362 L61.0297845,35.661749 C61.0311787,35.6514322 61.0331305,35.641673 61.0348035,35.631635 C61.6858809,35.950621 62.3776679,36.1848416 63.1051458,36.3278834 C63.6485932,36.4346768 64.1939924,36.4873764 64.7357668,36.4873764 C66.0379214,36.4873764 67.3152598,36.1773131 68.4841318,35.5847909 L70.4995437,38.2365019 C69.8838783,38.6606084 69.3005577,39.141597 68.7607351,39.6816984 L65.563346,42.8788086 L65.563346,42.8788086 Z M70.7474271,26.9835995 C70.8913054,27.7523447 70.8882383,28.531128 70.7362738,29.3040558 C70.4203549,30.9115336 69.4974144,32.2995691 68.1372624,33.2130292 C66.7771103,34.1264892 65.1434221,34.456071 63.5353866,34.1393156 C62.846109,34.0038023 62.2003295,33.7581496 61.6080862,33.4093283 C62.2689227,31.6847402 63.3948542,30.1726236 64.9013942,29.0271736 C66.6100887,27.7280862 68.6419518,27.0259823 70.7474271,26.9835995 L70.7474271,26.9835995 Z M77.4338657,36.0886439 C75.6936629,36.0886439 74.0103422,36.4519645 72.465602,37.1367807 L70.3286185,34.3252978 C71.6639544,33.1229658 72.5723954,31.5291508 72.9251204,29.7345754 C73.0929785,28.8807858 73.1250444,28.0219772 73.0277313,27.1695817 L79.1969328,28.0111027 L78.0944233,36.1076046 C77.8752598,36.0956147 77.6552598,36.0886439 77.4338657,36.0886439 L77.4338657,36.0886439 Z M77.4338657,38.3193156 C79.3868188,38.3193156 81.2533333,38.8758682 82.8563498,39.9097845 C82.5683143,40.4610393 82.2008112,40.9643346 81.7546768,41.4104689 C79.3633967,43.8014702 75.4725475,43.801749 73.0812674,41.4104689 C72.6370849,40.9662864 72.2723701,40.4680101 71.9871229,39.9251204 C73.5957161,38.881166 75.4711534,38.3193156 77.4338657,38.3193156 L77.4338657,38.3193156 Z M91.2183016,42.8743473 L89.4541191,42.6331559 L91.9290494,24.5100634 L93.6912801,24.7509759 L91.2183016,42.8743473 L91.2183016,42.8743473 Z M84.1607351,28.6878327 C84.773891,28.767858 85.3332319,28.3437516 85.4163245,27.733384 C85.7068695,25.6042079 87.6037769,24.0859569 89.7170596,24.2225856 L87.425602,41.0000253 L86.1069962,39.6814195 C84.4825095,38.0569328 82.4821546,36.9463371 80.3025095,36.4263118 L81.4072497,28.3119645 L84.1607351,28.6878327 L84.1607351,28.6878327 Z M63.5515589,27.2512801 C62.1133333,28.3445881 60.9589607,29.7119899 60.1366793,31.2620279 L55.0186819,26.1440304 C55.0186819,26.1440304 55.0214702,19.6603042 55.0248162,19.5735868 L68.1057541,19.5735868 C68.1091001,19.6608619 68.1121673,25.0861343 68.1121673,25.0861343 C66.4790368,25.4770596 64.9289987,26.2042586 63.5515589,27.2512801 L63.5515589,27.2512801 Z M61.5637516,13.2869962 C63.3156654,13.2869962 64.9591128,13.9670722 66.1932319,15.2045374 C66.8164259,15.8260583 67.298251,16.552142 67.6233714,17.3429151 L55.5066413,17.3429151 C55.8312041,16.5529785 56.3121926,15.8274525 56.9342712,15.2050951 C58.170621,13.9681876 59.8149049,13.2869962 61.5637516,13.2869962 L61.5637516,13.2869962 Z M53.740507,28.0203042 C53.740507,28.0203042 59.1735868,33.441673 59.2282383,33.4795944 C59.0458809,34.0896831 58.9075792,34.7173384 58.8200253,35.3603295 L58.7268948,36.0426362 L50.7048416,28.020583 L53.740507,28.020583 L53.740507,28.0203042 Z M63.9862611,44.4561724 L60.552142,47.8900127 L40.7270469,28.0651965 C41.7749049,26.7666667 42.6373384,25.3139417 43.2767047,23.7463371 L63.9862611,44.4561724 L63.9862611,44.4561724 Z M42.3180735,17.2559189 C42.3180735,17.7751077 42.2915843,18.2881622 42.2397212,18.793967 C38.5814195,22.3488213 33.6407605,23.8514575 29.3807351,22.7469962 C29.2990368,21.3486439 28.7221293,20.0439797 27.7230672,19.0454753 C26.6437009,17.9658302 25.2085425,17.3713561 23.6822053,17.3713561 C23.4373891,17.3713561 23.1959189,17.3922687 22.9569582,17.4223828 C20.8570596,12.8673511 22.2372877,6.92874525 26.472218,2.69409379 C26.6289227,2.5373891 26.7825602,2.39155894 26.9342459,2.25158428 C27.0574905,2.24851711 27.1801774,2.24210393 27.3042586,2.24210393 C35.5825602,2.24210393 42.3180735,8.9773384 42.3180735,17.2559189 L42.3180735,17.2559189 Z M23.6822053,19.6020279 C24.6126743,19.6020279 25.4879341,19.964512 26.1459823,20.6225602 C26.8040304,21.2806084 27.1665146,22.1558682 27.1665146,23.086616 C27.1665146,24.0173638 26.8040304,24.8923447 26.1459823,25.5503929 C25.4879341,26.2084411 24.6126743,26.5709252 23.6822053,26.5709252 C22.7514575,26.5709252 21.8761977,26.2084411 21.2181496,25.5501141 C20.5601014,24.8923447 20.1976172,24.0173638 20.1976172,23.086616 C20.1976172,22.1558682 20.5601014,21.2806084 21.2181496,20.6225602 C21.8761977,19.964512 22.7514575,19.6020279 23.6822053,19.6020279 L23.6822053,19.6020279 Z M23.4482636,2.74623574 C19.7723954,7.40332066 18.7398733,13.3525222 20.831128,18.1378707 C20.4025602,18.3857541 20.0004816,18.6860583 19.6410646,19.0457541 C18.5614195,20.1251204 17.9669455,21.5605577 17.9669455,23.0868948 C17.9669455,24.6132319 18.5616984,26.0486692 19.6410646,27.1277567 C20.7204309,28.2074018 22.1555894,28.8018758 23.6822053,28.8018758 C25.2088213,28.8018758 26.6437009,28.2074018 27.7230672,27.1280355 C28.3417997,26.5093029 28.7949049,25.7715082 29.0745754,24.9687452 C30.0987326,25.2118885 31.1516096,25.3329024 32.2150824,25.3329024 C35.3664639,25.3329024 38.6051204,24.2864385 41.432218,22.3348796 C39.3457034,28.1217997 33.80109,32.2705703 27.3042586,32.2705703 C19.0253992,32.2705703 12.2898859,25.5353359 12.2898859,17.2561977 C12.2896071,10.3101648 17.0320152,4.45269962 23.4482636,2.74623574 L23.4482636,2.74623574 Z M20.3094297,37.6520659 L5.4113308,22.753967 L10.0798479,18.0854499 C10.3968821,24.7495817 14.5158175,30.4311027 20.3091508,33.0131052 L20.3091508,37.6520659 L20.3094297,37.6520659 Z M8.44671736,36.7977186 L12.373815,32.870621 L14.1326996,34.6295057 L10.205602,38.5566033 L8.44671736,36.7977186 L8.44671736,36.7977186 Z M2.23067174,28.2581496 C2.23067174,26.7783777 2.8017237,25.3878327 3.83619772,24.3330038 L10.79673,31.2935361 L6.86963245,35.2206337 L3.8738403,32.2248416 C2.81427123,31.1652725 2.23067174,29.7563245 2.23067174,28.2581496 L2.23067174,28.2581496 Z M11.7826869,40.1336882 L15.7097845,36.2065906 L20.3094297,40.8062357 L20.3094297,48.6604309 L11.7826869,40.1336882 L11.7826869,40.1336882 Z M22.6940177,55.419924 C24.8457795,54.4367554 27.3957161,54.868948 29.1074778,56.5804309 C30.9140431,58.3869962 31.2734601,61.2068441 30.0666667,63.3993156 C26.2926489,62.4242332 23.3752091,59.3021293 22.6940177,55.419924 L22.6940177,55.419924 Z M32.393815,63.7124461 C33.4422307,61.2430925 33.1739924,58.4134854 31.6549049,56.1794677 L37.2131812,50.6209125 L43.8221039,50.6209125 C43.9096578,50.6209125 43.9963752,50.6242586 44.0833714,50.6276046 L44.0833714,63.7104943 C43.996654,63.7135615 32.4543219,63.7135615 32.393815,63.7124461 L32.393815,63.7124461 Z M50.3702408,57.1690494 C50.3702408,59.8977186 48.692218,62.2407605 46.3140431,63.2230925 L46.3140431,51.1144487 C48.6919392,52.0970596 50.3702408,54.4403802 50.3702408,57.1690494 L50.3702408,57.1690494 Z M64.8266667,65.2507731 C57.3349556,72.7416477 45.2915589,72.9741952 37.5179468,65.9475792 L43.8221039,65.9475792 C48.6626616,65.9475792 52.6006337,62.0096071 52.6006337,57.1690494 C52.6006337,52.3284918 48.6626616,48.3902408 43.8221039,48.3902408 L37.8667681,48.3902408 L37.8667681,36.021166 C37.8667681,35.4052218 37.3673764,34.9058302 36.7514322,34.9058302 C36.135488,34.9058302 35.6360963,35.4052218 35.6360963,36.021166 L35.6360963,49.0438276 L30.1575665,54.5223574 C28.0166793,52.7288973 25.133815,52.2130545 22.5401014,53.0858048 L22.5401014,33.8264639 C24.0544487,34.2622814 25.6513308,34.5009632 27.3039797,34.5009632 C31.9211914,34.5009632 36.1170849,32.6734854 39.215488,29.7080862 L58.9747782,49.4670976 L56.2725982,52.1692776 C55.8367807,52.6048162 55.8367807,53.3111027 56.2725982,53.7463625 C56.707858,54.18218 57.4147022,54.18218 57.8496831,53.7463625 L70.2360456,41.3602788 C70.5870976,41.9475032 71.0089734,42.4929024 71.5036248,42.9875539 C72.8545754,44.3385044 74.5565779,45.1278834 76.3185298,45.3595944 L76.3185298,53.7987833 L64.8266667,65.2507731 L64.8266667,65.2507731 Z M81.7499366,56.9989607 L91.0102915,47.7388847 L92.9738403,49.7024335 C93.4096578,50.138251 94.1159442,50.138251 94.5509252,49.7024335 C96.0702915,48.1836248 98.4983777,48.1220025 100.096654,49.5092015 L87.1729785,62.4325982 L81.7499366,56.9989607 L81.7499366,56.9989607 Z M90.0084411,65.2680608 L88.7500634,64.0096831 L101.684056,51.0759696 L102.942155,52.3343473 L90.0084411,65.2680608 L90.0084411,65.2680608 Z" id="Shape"></path>
                                    </g>
                                </g>
                            </g>
                        </g>
                    </g>
                    <g id="selection" transform="translate(141.111111, 77.777778)" fill="#000000" sketch:type="MSShapeGroup">
                        <g id="Slice-1">
                            <g id="Page-1">
                                <path d="M38.47377,1.48583843 C37.9382285,0.567532336 36.9339534,0 35.8443365,0 L34.1196124,0 L3.02005722,0 C1.93022478,0 0.925734163,0.567532336 0.39019261,1.48583843 C-0.145133433,2.40164344 -0.128754697,3.52795441 0.433941075,4.42958675 L8.70886623,17.6849995 L16.8083665,17.6849995 L16.8083665,17.6868754 L23.132929,17.6868754 L15.9465433,29.2244764 L16.8906912,30.7380349 C17.4372237,31.6140313 18.4184393,32.1482162 19.4757298,32.1482162 C20.5340978,32.1482162 21.5150979,31.6140313 22.0616305,30.7380349 L31.0179972,16.3279657 C31.5617281,15.4500935 31.5895289,14.3617153 31.0932101,13.4577903 C30.5975378,12.5544906 29.6620103,11.902339 28.6055818,11.8462736 L12.1145656,11.8462736 L8.36857644,5.84101863 L37.549018,5.84331127 L38.4302371,4.42958675 C38.9929328,3.52795441 39.0097426,2.40164344 38.47377,1.48583843" id="Fill-1"></path>
                            </g>
                        </g>
                    </g>
                    <ellipse id="Oval-1" stroke="#FFFFFF" stroke-width="4" filter="url(#filter-3)" sketch:type="MSShapeGroup" cx="160.555556" cy="77.2222222" rx="48.3333333" ry="48.3333333"></ellipse>
                </g>
            </g>
        </g>
    </g>
</svg>